<?xml version="1.0" encoding="utf-8" standalone="no"?>
<!DOCTYPE svg PUBLIC "-//W3C//DTD SVG 1.1//EN"
  "http://www.w3.org/Graphics/SVG/1.1/DTD/svg11.dtd">
<svg xmlns:xlink="http://www.w3.org/1999/xlink" width="460.8pt" height="345.6pt" viewBox="0 0 460.8 345.6" xmlns="http://www.w3.org/2000/svg" version="1.1">
 <metadata>
  <rdf:RDF xmlns:dc="http://purl.org/dc/elements/1.1/" xmlns:cc="http://creativecommons.org/ns#" xmlns:rdf="http://www.w3.org/1999/02/22-rdf-syntax-ns#">
   <cc:Work>
    <dc:type rdf:resource="http://purl.org/dc/dcmitype/StillImage"/>
    <dc:date>2022-12-18T21:10:54.313080</dc:date>
    <dc:format>image/svg+xml</dc:format>
    <dc:creator>
     <cc:Agent>
      <dc:title>Matplotlib v3.5.1, https://matplotlib.org/</dc:title>
     </cc:Agent>
    </dc:creator>
   </cc:Work>
  </rdf:RDF>
 </metadata>
 <defs>
  <style type="text/css">*{stroke-linejoin: round; stroke-linecap: butt}</style>
 </defs>
 <g id="figure_1">
  <g id="patch_1">
   <path d="M 0 345.6 
L 460.8 345.6 
L 460.8 0 
L 0 0 
z
" style="fill: #0f0f23"/>
  </g>
  <g id="axes_1">
   <g id="patch_2">
    <path d="M 236.223283 53.568 
C 220.168213 53.568 204.273377 56.771836 189.471954 62.991413 
C 174.67053 69.21099 161.257964 78.322162 150.021701 89.790015 
C 138.785437 101.257868 129.949758 114.853498 124.033403 129.778712 
C 118.117048 144.703926 115.238109 160.660808 115.565609 176.712537 
C 115.89311 192.764267 119.420511 208.590442 125.940721 223.261915 
C 132.460931 237.933388 141.843804 251.157309 153.538474 262.157307 
C 165.233144 273.157305 179.006181 281.713815 194.048974 287.324486 
C 209.091768 292.935158 225.104056 295.488 241.145765 294.833136 
L 236.223283 174.250784 
L 236.223283 53.568 
z
" style="fill: #1f77b4"/>
   </g>
   <g id="patch_3">
    <path d="M 241.145765 294.833136 
C 254.294144 294.296386 267.266647 291.612669 279.54873 286.888434 
C 291.830813 282.164198 303.257915 275.462743 313.376789 267.049874 
L 236.223283 174.250784 
L 241.145765 294.833136 
z
" style="fill: #ff7f0e"/>
   </g>
   <g id="patch_4">
    <path d="M 313.376789 267.049874 
C 326.041041 256.520767 336.41692 243.509827 343.863977 228.820147 
C 351.311035 214.130467 355.672831 198.070636 356.680134 181.631941 
L 236.223283 174.250784 
L 313.376789 267.049874 
z
" style="fill: #2ca02c"/>
   </g>
   <g id="patch_5">
    <path d="M 356.680134 181.631941 
C 357.081891 175.07547 356.947674 168.497128 356.278822 161.9625 
C 355.60997 155.427872 354.408714 148.958747 352.687028 142.619621 
L 236.223283 174.250784 
L 356.680134 181.631941 
z
" style="fill: #d62728"/>
   </g>
   <g id="patch_6">
    <path d="M 352.687028 142.619621 
C 351.826543 139.451375 350.837134 136.31956 349.721271 133.231994 
C 348.605408 130.144428 347.364019 127.103681 346.000204 124.117341 
L 236.223283 174.250784 
L 352.687028 142.619621 
z
" style="fill: #9467bd"/>
   </g>
   <g id="patch_7">
    <path d="M 346.000204 124.117341 
C 345.318367 122.624327 344.606142 121.145378 343.863975 119.681417 
C 343.121808 118.217456 342.349852 116.768788 341.548589 115.336318 
L 236.223283 174.250784 
L 346.000204 124.117341 
z
" style="fill: #8c564b"/>
   </g>
   <g id="patch_8">
    <path d="M 341.548589 115.336318 
C 339.945897 112.471079 338.226954 109.672432 336.396052 106.947361 
C 334.565149 104.22229 332.62381 101.573065 330.576881 99.006297 
L 236.223283 174.250784 
L 341.548589 115.336318 
z
" style="fill: #e377c2"/>
   </g>
   <g id="patch_9">
    <path d="M 330.576881 99.006297 
C 329.553523 97.723046 328.504092 96.460807 327.429244 95.220365 
C 326.354395 93.979924 325.254353 92.76154 324.129803 91.565972 
L 236.223283 174.250784 
L 330.576881 99.006297 
z
" style="fill: #7f7f7f"/>
   </g>
   <g id="patch_10">
    <path d="M 324.129803 91.565972 
C 323.005253 90.370405 321.85643 89.197904 320.684051 88.0492 
C 319.511671 86.900496 318.31598 85.77583 317.097722 84.675902 
L 236.223283 174.250784 
L 324.129803 91.565972 
z
" style="fill: #bcbd22"/>
   </g>
   <g id="patch_11">
    <path d="M 317.097722 84.675902 
C 315.879464 83.575974 314.638894 82.501014 313.376785 81.451692 
C 312.114677 80.402371 310.831293 79.378906 309.527434 78.381937 
L 236.223283 174.250784 
L 317.097722 84.675902 
z
" style="fill: #17becf"/>
   </g>
   <g id="patch_12">
    <path d="M 309.527434 78.381937 
C 308.223576 77.384969 306.899514 76.414703 305.556076 75.471747 
C 304.212637 74.52879 302.850102 73.613339 301.46932 72.725964 
L 236.223283 174.250784 
L 309.527434 78.381937 
z
" style="fill: #1f77b4"/>
   </g>
   <g id="patch_13">
    <path d="M 301.46932 72.725964 
C 300.088537 71.838589 298.689796 70.979476 297.273968 70.14916 
C 295.85814 69.318843 294.425521 68.517497 292.977004 67.745622 
L 236.223283 174.250784 
L 301.46932 72.725964 
z
" style="fill: #ff7f0e"/>
   </g>
   <g id="patch_14">
    <path d="M 292.977004 67.745622 
C 291.528486 66.973746 290.064373 66.231502 288.585578 65.519352 
C 287.106783 64.807201 285.613613 64.125294 284.107001 63.474054 
L 236.223283 174.250784 
L 292.977004 67.745622 
z
" style="fill: #2ca02c"/>
   </g>
   <g id="patch_15">
    <path d="M 284.107001 63.474054 
C 282.600388 62.822814 281.080647 62.202378 279.548726 61.613133 
C 278.016804 61.023888 276.473021 60.465957 274.91834 59.939687 
L 236.223283 174.250784 
L 284.107001 63.474054 
z
" style="fill: #d62728"/>
   </g>
   <g id="patch_16">
    <path d="M 274.91834 59.939687 
C 273.363659 59.413417 271.798403 58.918919 270.22355 58.4565 
C 268.648696 57.994081 267.064573 57.563839 265.472169 57.166041 
L 236.223283 174.250784 
L 274.91834 59.939687 
z
" style="fill: #9467bd"/>
   </g>
   <g id="patch_17">
    <path d="M 265.472169 57.166041 
C 263.879765 56.768244 262.279412 56.402973 260.672107 56.070459 
C 259.064803 55.737944 257.450882 55.438254 255.831353 55.171575 
L 236.223283 174.250784 
L 265.472169 57.166041 
z
" style="fill: #8c564b"/>
   </g>
   <g id="patch_18">
    <path d="M 255.831353 55.171575 
C 254.211823 54.904897 252.587022 54.671286 250.957962 54.470888 
C 249.328903 54.27049 247.695925 54.103346 246.060047 53.969562 
L 236.223283 174.250784 
L 255.831353 55.171575 
z
" style="fill: #e377c2"/>
   </g>
   <g id="patch_19">
    <path d="M 246.060047 53.969562 
C 244.42417 53.835777 242.785733 53.73538 241.14576 53.668432 
C 239.505787 53.601484 237.864619 53.568 236.22328 53.568 
L 236.223283 174.250784 
L 246.060047 53.969562 
z
" style="fill: #7f7f7f"/>
   </g>
   <g id="patch_20">
    <path d="M 236.223283 210.45562 
C 245.824918 210.45562 255.034587 206.64085 261.823968 199.851469 
C 268.613348 193.062088 272.428118 183.852419 272.428118 174.250784 
C 272.428118 164.64915 268.613348 155.439481 261.823968 148.6501 
C 255.034587 141.860719 245.824918 138.045949 236.223283 138.045949 
C 226.621648 138.045949 217.411979 141.860719 210.622598 148.6501 
C 203.833218 155.439481 200.018448 164.64915 200.018448 174.250784 
C 200.018448 183.852419 203.833218 193.062088 210.622598 199.851469 
C 217.411979 206.64085 226.621648 210.45562 236.223283 210.45562 
z
" clip-path="url(#pd6385d6117)" style="fill: #0f0f23; stroke: #0f0f23; stroke-linejoin: miter"/>
   </g>
   <g id="matplotlib.axis_1"/>
   <g id="matplotlib.axis_2"/>
   <g id="text_1">
    <!-- 800.0 -->
    <g style="fill: #cccccc" transform="translate(74.871717 179.718088)scale(0.1 -0.1)">
     <defs>
      <path id="DejaVuSans-38" d="M 2034 2216 
Q 1584 2216 1326 1975 
Q 1069 1734 1069 1313 
Q 1069 891 1326 650 
Q 1584 409 2034 409 
Q 2484 409 2743 651 
Q 3003 894 3003 1313 
Q 3003 1734 2745 1975 
Q 2488 2216 2034 2216 
z
M 1403 2484 
Q 997 2584 770 2862 
Q 544 3141 544 3541 
Q 544 4100 942 4425 
Q 1341 4750 2034 4750 
Q 2731 4750 3128 4425 
Q 3525 4100 3525 3541 
Q 3525 3141 3298 2862 
Q 3072 2584 2669 2484 
Q 3125 2378 3379 2068 
Q 3634 1759 3634 1313 
Q 3634 634 3220 271 
Q 2806 -91 2034 -91 
Q 1263 -91 848 271 
Q 434 634 434 1313 
Q 434 1759 690 2068 
Q 947 2378 1403 2484 
z
M 1172 3481 
Q 1172 3119 1398 2916 
Q 1625 2713 2034 2713 
Q 2441 2713 2670 2916 
Q 2900 3119 2900 3481 
Q 2900 3844 2670 4047 
Q 2441 4250 2034 4250 
Q 1625 4250 1398 4047 
Q 1172 3844 1172 3481 
z
" transform="scale(0.015625)"/>
      <path id="DejaVuSans-30" d="M 2034 4250 
Q 1547 4250 1301 3770 
Q 1056 3291 1056 2328 
Q 1056 1369 1301 889 
Q 1547 409 2034 409 
Q 2525 409 2770 889 
Q 3016 1369 3016 2328 
Q 3016 3291 2770 3770 
Q 2525 4250 2034 4250 
z
M 2034 4750 
Q 2819 4750 3233 4129 
Q 3647 3509 3647 2328 
Q 3647 1150 3233 529 
Q 2819 -91 2034 -91 
Q 1250 -91 836 529 
Q 422 1150 422 2328 
Q 422 3509 836 4129 
Q 1250 4750 2034 4750 
z
" transform="scale(0.015625)"/>
      <path id="DejaVuSans-2e" d="M 684 794 
L 1344 794 
L 1344 0 
L 684 0 
L 684 794 
z
" transform="scale(0.015625)"/>
     </defs>
     <use xlink:href="#DejaVuSans-38"/>
     <use xlink:href="#DejaVuSans-30" x="63.623047"/>
     <use xlink:href="#DejaVuSans-30" x="127.246094"/>
     <use xlink:href="#DejaVuSans-2e" x="190.869141"/>
     <use xlink:href="#DejaVuSans-30" x="222.65625"/>
    </g>
   </g>
   <g id="text_2">
    <!-- 50.6% -->
    <g style="fill: #ffffff" transform="translate(147.945085 178.487211)scale(0.1 -0.1)">
     <defs>
      <path id="DejaVuSans-35" d="M 691 4666 
L 3169 4666 
L 3169 4134 
L 1269 4134 
L 1269 2991 
Q 1406 3038 1543 3061 
Q 1681 3084 1819 3084 
Q 2600 3084 3056 2656 
Q 3513 2228 3513 1497 
Q 3513 744 3044 326 
Q 2575 -91 1722 -91 
Q 1428 -91 1123 -41 
Q 819 9 494 109 
L 494 744 
Q 775 591 1075 516 
Q 1375 441 1709 441 
Q 2250 441 2565 725 
Q 2881 1009 2881 1497 
Q 2881 1984 2565 2268 
Q 2250 2553 1709 2553 
Q 1456 2553 1204 2497 
Q 953 2441 691 2322 
L 691 4666 
z
" transform="scale(0.015625)"/>
      <path id="DejaVuSans-36" d="M 2113 2584 
Q 1688 2584 1439 2293 
Q 1191 2003 1191 1497 
Q 1191 994 1439 701 
Q 1688 409 2113 409 
Q 2538 409 2786 701 
Q 3034 994 3034 1497 
Q 3034 2003 2786 2293 
Q 2538 2584 2113 2584 
z
M 3366 4563 
L 3366 3988 
Q 3128 4100 2886 4159 
Q 2644 4219 2406 4219 
Q 1781 4219 1451 3797 
Q 1122 3375 1075 2522 
Q 1259 2794 1537 2939 
Q 1816 3084 2150 3084 
Q 2853 3084 3261 2657 
Q 3669 2231 3669 1497 
Q 3669 778 3244 343 
Q 2819 -91 2113 -91 
Q 1303 -91 875 529 
Q 447 1150 447 2328 
Q 447 3434 972 4092 
Q 1497 4750 2381 4750 
Q 2619 4750 2861 4703 
Q 3103 4656 3366 4563 
z
" transform="scale(0.015625)"/>
      <path id="DejaVuSans-25" d="M 4653 2053 
Q 4381 2053 4226 1822 
Q 4072 1591 4072 1178 
Q 4072 772 4226 539 
Q 4381 306 4653 306 
Q 4919 306 5073 539 
Q 5228 772 5228 1178 
Q 5228 1588 5073 1820 
Q 4919 2053 4653 2053 
z
M 4653 2450 
Q 5147 2450 5437 2106 
Q 5728 1763 5728 1178 
Q 5728 594 5436 251 
Q 5144 -91 4653 -91 
Q 4153 -91 3862 251 
Q 3572 594 3572 1178 
Q 3572 1766 3864 2108 
Q 4156 2450 4653 2450 
z
M 1428 4353 
Q 1159 4353 1004 4120 
Q 850 3888 850 3481 
Q 850 3069 1003 2837 
Q 1156 2606 1428 2606 
Q 1700 2606 1854 2837 
Q 2009 3069 2009 3481 
Q 2009 3884 1853 4118 
Q 1697 4353 1428 4353 
z
M 4250 4750 
L 4750 4750 
L 1831 -91 
L 1331 -91 
L 4250 4750 
z
M 1428 4750 
Q 1922 4750 2215 4408 
Q 2509 4066 2509 3481 
Q 2509 2891 2217 2550 
Q 1925 2209 1428 2209 
Q 931 2209 642 2551 
Q 353 2894 353 3481 
Q 353 4063 643 4406 
Q 934 4750 1428 4750 
z
" transform="scale(0.015625)"/>
     </defs>
     <use xlink:href="#DejaVuSans-35"/>
     <use xlink:href="#DejaVuSans-30" x="63.623047"/>
     <use xlink:href="#DejaVuSans-2e" x="127.246094"/>
     <use xlink:href="#DejaVuSans-36" x="159.033203"/>
     <use xlink:href="#DejaVuSans-25" x="222.65625"/>
    </g>
   </g>
   <g id="text_3">
    <!-- 900.0 -->
    <g style="fill: #cccccc" transform="translate(283.881275 300.911574)scale(0.1 -0.1)">
     <defs>
      <path id="DejaVuSans-39" d="M 703 97 
L 703 672 
Q 941 559 1184 500 
Q 1428 441 1663 441 
Q 2288 441 2617 861 
Q 2947 1281 2994 2138 
Q 2813 1869 2534 1725 
Q 2256 1581 1919 1581 
Q 1219 1581 811 2004 
Q 403 2428 403 3163 
Q 403 3881 828 4315 
Q 1253 4750 1959 4750 
Q 2769 4750 3195 4129 
Q 3622 3509 3622 2328 
Q 3622 1225 3098 567 
Q 2575 -91 1691 -91 
Q 1453 -91 1209 -44 
Q 966 3 703 97 
z
M 1959 2075 
Q 2384 2075 2632 2365 
Q 2881 2656 2881 3163 
Q 2881 3666 2632 3958 
Q 2384 4250 1959 4250 
Q 1534 4250 1286 3958 
Q 1038 3666 1038 3163 
Q 1038 2656 1286 2365 
Q 1534 2075 1959 2075 
z
" transform="scale(0.015625)"/>
     </defs>
     <use xlink:href="#DejaVuSans-39"/>
     <use xlink:href="#DejaVuSans-30" x="63.623047"/>
     <use xlink:href="#DejaVuSans-30" x="127.246094"/>
     <use xlink:href="#DejaVuSans-2e" x="190.869141"/>
     <use xlink:href="#DejaVuSans-30" x="222.65625"/>
    </g>
   </g>
   <g id="text_4">
    <!-- 10.4% -->
    <g style="fill: #ffffff" transform="translate(246.334957 244.592749)scale(0.1 -0.1)">
     <defs>
      <path id="DejaVuSans-31" d="M 794 531 
L 1825 531 
L 1825 4091 
L 703 3866 
L 703 4441 
L 1819 4666 
L 2450 4666 
L 2450 531 
L 3481 531 
L 3481 0 
L 794 0 
L 794 531 
z
" transform="scale(0.015625)"/>
      <path id="DejaVuSans-34" d="M 2419 4116 
L 825 1625 
L 2419 1625 
L 2419 4116 
z
M 2253 4666 
L 3047 4666 
L 3047 1625 
L 3713 1625 
L 3713 1100 
L 3047 1100 
L 3047 0 
L 2419 0 
L 2419 1100 
L 313 1100 
L 313 1709 
L 2253 4666 
z
" transform="scale(0.015625)"/>
     </defs>
     <use xlink:href="#DejaVuSans-31"/>
     <use xlink:href="#DejaVuSans-30" x="63.623047"/>
     <use xlink:href="#DejaVuSans-2e" x="127.246094"/>
     <use xlink:href="#DejaVuSans-34" x="159.033203"/>
     <use xlink:href="#DejaVuSans-25" x="222.65625"/>
    </g>
   </g>
   <g id="text_5">
    <!-- 1000.0 -->
    <g style="fill: #cccccc" transform="translate(354.628047 237.036458)scale(0.1 -0.1)">
     <use xlink:href="#DejaVuSans-31"/>
     <use xlink:href="#DejaVuSans-30" x="63.623047"/>
     <use xlink:href="#DejaVuSans-30" x="127.246094"/>
     <use xlink:href="#DejaVuSans-30" x="190.869141"/>
     <use xlink:href="#DejaVuSans-2e" x="254.492188"/>
     <use xlink:href="#DejaVuSans-30" x="286.279297"/>
    </g>
   </g>
   <g id="text_6">
    <!-- 13.0% -->
    <g style="fill: #ffffff" transform="translate(284.924106 209.751777)scale(0.1 -0.1)">
     <defs>
      <path id="DejaVuSans-33" d="M 2597 2516 
Q 3050 2419 3304 2112 
Q 3559 1806 3559 1356 
Q 3559 666 3084 287 
Q 2609 -91 1734 -91 
Q 1441 -91 1130 -33 
Q 819 25 488 141 
L 488 750 
Q 750 597 1062 519 
Q 1375 441 1716 441 
Q 2309 441 2620 675 
Q 2931 909 2931 1356 
Q 2931 1769 2642 2001 
Q 2353 2234 1838 2234 
L 1294 2234 
L 1294 2753 
L 1863 2753 
Q 2328 2753 2575 2939 
Q 2822 3125 2822 3475 
Q 2822 3834 2567 4026 
Q 2313 4219 1838 4219 
Q 1578 4219 1281 4162 
Q 984 4106 628 3988 
L 628 4550 
Q 988 4650 1302 4700 
Q 1616 4750 1894 4750 
Q 2613 4750 3031 4423 
Q 3450 4097 3450 3541 
Q 3450 3153 3228 2886 
Q 3006 2619 2597 2516 
z
" transform="scale(0.015625)"/>
     </defs>
     <use xlink:href="#DejaVuSans-31"/>
     <use xlink:href="#DejaVuSans-33" x="63.623047"/>
     <use xlink:href="#DejaVuSans-2e" x="127.246094"/>
     <use xlink:href="#DejaVuSans-30" x="159.033203"/>
     <use xlink:href="#DejaVuSans-25" x="222.65625"/>
    </g>
   </g>
   <g id="text_7">
    <!-- 1100.0 -->
    <g style="fill: #cccccc" transform="translate(368.284376 163.493046)scale(0.1 -0.1)">
     <use xlink:href="#DejaVuSans-31"/>
     <use xlink:href="#DejaVuSans-31" x="63.623047"/>
     <use xlink:href="#DejaVuSans-30" x="127.246094"/>
     <use xlink:href="#DejaVuSans-30" x="190.869141"/>
     <use xlink:href="#DejaVuSans-2e" x="254.492188"/>
     <use xlink:href="#DejaVuSans-30" x="286.279297"/>
    </g>
   </g>
   <g id="text_8">
    <!-- 5.2% -->
    <g style="fill: #ffffff" transform="translate(295.554263 169.637189)scale(0.1 -0.1)">
     <defs>
      <path id="DejaVuSans-32" d="M 1228 531 
L 3431 531 
L 3431 0 
L 469 0 
L 469 531 
Q 828 903 1448 1529 
Q 2069 2156 2228 2338 
Q 2531 2678 2651 2914 
Q 2772 3150 2772 3378 
Q 2772 3750 2511 3984 
Q 2250 4219 1831 4219 
Q 1534 4219 1204 4116 
Q 875 4013 500 3803 
L 500 4441 
Q 881 4594 1212 4672 
Q 1544 4750 1819 4750 
Q 2544 4750 2975 4387 
Q 3406 4025 3406 3419 
Q 3406 3131 3298 2873 
Q 3191 2616 2906 2266 
Q 2828 2175 2409 1742 
Q 1991 1309 1228 531 
z
" transform="scale(0.015625)"/>
     </defs>
     <use xlink:href="#DejaVuSans-35"/>
     <use xlink:href="#DejaVuSans-2e" x="63.623047"/>
     <use xlink:href="#DejaVuSans-32" x="95.410156"/>
     <use xlink:href="#DejaVuSans-25" x="159.033203"/>
    </g>
   </g>
   <g id="text_9">
    <!-- 1300.0 -->
    <g style="fill: #cccccc" transform="translate(361.07107 131.88949)scale(0.1 -0.1)">
     <use xlink:href="#DejaVuSans-31"/>
     <use xlink:href="#DejaVuSans-33" x="63.623047"/>
     <use xlink:href="#DejaVuSans-30" x="127.246094"/>
     <use xlink:href="#DejaVuSans-30" x="190.869141"/>
     <use xlink:href="#DejaVuSans-2e" x="254.492188"/>
     <use xlink:href="#DejaVuSans-30" x="286.279297"/>
    </g>
   </g>
   <g id="text_10">
    <!-- 2.6% -->
    <g style="fill: #ffffff" transform="translate(291.619732 152.398885)scale(0.1 -0.1)">
     <use xlink:href="#DejaVuSans-32"/>
     <use xlink:href="#DejaVuSans-2e" x="63.623047"/>
     <use xlink:href="#DejaVuSans-36" x="95.410156"/>
     <use xlink:href="#DejaVuSans-25" x="159.033203"/>
    </g>
   </g>
   <g id="text_11">
    <!-- 1400.0 -->
    <g style="fill: #cccccc" transform="translate(354.628044 116.983855)scale(0.1 -0.1)">
     <use xlink:href="#DejaVuSans-31"/>
     <use xlink:href="#DejaVuSans-34" x="63.623047"/>
     <use xlink:href="#DejaVuSans-30" x="127.246094"/>
     <use xlink:href="#DejaVuSans-30" x="190.869141"/>
     <use xlink:href="#DejaVuSans-2e" x="254.492188"/>
     <use xlink:href="#DejaVuSans-30" x="286.279297"/>
    </g>
   </g>
   <g id="text_12">
    <!-- 1.3% -->
    <g style="fill: #ffffff" transform="translate(288.105354 144.268539)scale(0.1 -0.1)">
     <use xlink:href="#DejaVuSans-31"/>
     <use xlink:href="#DejaVuSans-2e" x="63.623047"/>
     <use xlink:href="#DejaVuSans-33" x="95.410156"/>
     <use xlink:href="#DejaVuSans-25" x="159.033203"/>
    </g>
   </g>
   <g id="text_13">
    <!-- 1200.0 -->
    <g style="fill: #cccccc" transform="translate(346.413329 102.976393)scale(0.1 -0.1)">
     <use xlink:href="#DejaVuSans-31"/>
     <use xlink:href="#DejaVuSans-32" x="63.623047"/>
     <use xlink:href="#DejaVuSans-30" x="127.246094"/>
     <use xlink:href="#DejaVuSans-30" x="190.869141"/>
     <use xlink:href="#DejaVuSans-2e" x="254.492188"/>
     <use xlink:href="#DejaVuSans-30" x="286.279297"/>
    </g>
   </g>
   <g id="text_14">
    <!-- 2.6% -->
    <g style="fill: #ffffff" transform="translate(283.6246 136.628105)scale(0.1 -0.1)">
     <use xlink:href="#DejaVuSans-32"/>
     <use xlink:href="#DejaVuSans-2e" x="63.623047"/>
     <use xlink:href="#DejaVuSans-36" x="95.410156"/>
     <use xlink:href="#DejaVuSans-25" x="159.033203"/>
    </g>
   </g>
   <g id="text_15">
    <!-- 1600.0 -->
    <g style="fill: #cccccc" transform="translate(336.54984 90.076699)scale(0.1 -0.1)">
     <use xlink:href="#DejaVuSans-31"/>
     <use xlink:href="#DejaVuSans-36" x="63.623047"/>
     <use xlink:href="#DejaVuSans-30" x="127.246094"/>
     <use xlink:href="#DejaVuSans-30" x="190.869141"/>
     <use xlink:href="#DejaVuSans-2e" x="254.492188"/>
     <use xlink:href="#DejaVuSans-30" x="286.279297"/>
    </g>
   </g>
   <g id="text_16">
    <!-- 1.3% -->
    <g style="fill: #ffffff" transform="translate(278.244516 129.591908)scale(0.1 -0.1)">
     <use xlink:href="#DejaVuSans-31"/>
     <use xlink:href="#DejaVuSans-2e" x="63.623047"/>
     <use xlink:href="#DejaVuSans-33" x="95.410156"/>
     <use xlink:href="#DejaVuSans-25" x="159.033203"/>
    </g>
   </g>
   <g id="text_17">
    <!-- 1500.0 -->
    <g style="fill: #cccccc" transform="translate(329.130128 82.188417)scale(0.1 -0.1)">
     <use xlink:href="#DejaVuSans-31"/>
     <use xlink:href="#DejaVuSans-35" x="63.623047"/>
     <use xlink:href="#DejaVuSans-30" x="127.246094"/>
     <use xlink:href="#DejaVuSans-30" x="190.869141"/>
     <use xlink:href="#DejaVuSans-2e" x="254.492188"/>
     <use xlink:href="#DejaVuSans-30" x="286.279297"/>
    </g>
   </g>
   <g id="text_18">
    <!-- 1.3% -->
    <g style="fill: #ffffff" transform="translate(274.1974 125.289209)scale(0.1 -0.1)">
     <use xlink:href="#DejaVuSans-31"/>
     <use xlink:href="#DejaVuSans-2e" x="63.623047"/>
     <use xlink:href="#DejaVuSans-33" x="95.410156"/>
     <use xlink:href="#DejaVuSans-25" x="159.033203"/>
    </g>
   </g>
   <g id="text_19">
    <!-- 1700.0 -->
    <g style="fill: #cccccc" transform="translate(321.092135 74.931158)scale(0.1 -0.1)">
     <defs>
      <path id="DejaVuSans-37" d="M 525 4666 
L 3525 4666 
L 3525 4397 
L 1831 0 
L 1172 0 
L 2766 4134 
L 525 4134 
L 525 4666 
z
" transform="scale(0.015625)"/>
     </defs>
     <use xlink:href="#DejaVuSans-31"/>
     <use xlink:href="#DejaVuSans-37" x="63.623047"/>
     <use xlink:href="#DejaVuSans-30" x="127.246094"/>
     <use xlink:href="#DejaVuSans-30" x="190.869141"/>
     <use xlink:href="#DejaVuSans-2e" x="254.492188"/>
     <use xlink:href="#DejaVuSans-30" x="286.279297"/>
    </g>
   </g>
   <g id="text_20">
    <!-- 1.3% -->
    <g style="fill: #ffffff" transform="translate(269.813041 121.330704)scale(0.1 -0.1)">
     <use xlink:href="#DejaVuSans-31"/>
     <use xlink:href="#DejaVuSans-2e" x="63.623047"/>
     <use xlink:href="#DejaVuSans-33" x="95.410156"/>
     <use xlink:href="#DejaVuSans-25" x="159.033203"/>
    </g>
   </g>
   <g id="text_21">
    <!-- nan -->
    <g style="fill: #cccccc" transform="translate(312.489355 68.353218)scale(0.1 -0.1)">
     <defs>
      <path id="DejaVuSans-6e" d="M 3513 2113 
L 3513 0 
L 2938 0 
L 2938 2094 
Q 2938 2591 2744 2837 
Q 2550 3084 2163 3084 
Q 1697 3084 1428 2787 
Q 1159 2491 1159 1978 
L 1159 0 
L 581 0 
L 581 3500 
L 1159 3500 
L 1159 2956 
Q 1366 3272 1645 3428 
Q 1925 3584 2291 3584 
Q 2894 3584 3203 3211 
Q 3513 2838 3513 2113 
z
" transform="scale(0.015625)"/>
      <path id="DejaVuSans-61" d="M 2194 1759 
Q 1497 1759 1228 1600 
Q 959 1441 959 1056 
Q 959 750 1161 570 
Q 1363 391 1709 391 
Q 2188 391 2477 730 
Q 2766 1069 2766 1631 
L 2766 1759 
L 2194 1759 
z
M 3341 1997 
L 3341 0 
L 2766 0 
L 2766 531 
Q 2569 213 2275 61 
Q 1981 -91 1556 -91 
Q 1019 -91 701 211 
Q 384 513 384 1019 
Q 384 1609 779 1909 
Q 1175 2209 1959 2209 
L 2766 2209 
L 2766 2266 
Q 2766 2663 2505 2880 
Q 2244 3097 1772 3097 
Q 1472 3097 1187 3025 
Q 903 2953 641 2809 
L 641 3341 
Q 956 3463 1253 3523 
Q 1550 3584 1831 3584 
Q 2591 3584 2966 3190 
Q 3341 2797 3341 1997 
z
" transform="scale(0.015625)"/>
     </defs>
     <use xlink:href="#DejaVuSans-6e"/>
     <use xlink:href="#DejaVuSans-61" x="63.378906"/>
     <use xlink:href="#DejaVuSans-6e" x="124.658203"/>
    </g>
   </g>
   <g id="text_22">
    <!-- 1.3% -->
    <g style="fill: #ffffff" transform="translate(265.120615 117.742737)scale(0.1 -0.1)">
     <use xlink:href="#DejaVuSans-31"/>
     <use xlink:href="#DejaVuSans-2e" x="63.623047"/>
     <use xlink:href="#DejaVuSans-33" x="95.410156"/>
     <use xlink:href="#DejaVuSans-25" x="159.033203"/>
    </g>
   </g>
   <g id="text_23">
    <!-- nan -->
    <g style="fill: #cccccc" transform="translate(303.379037 62.498372)scale(0.1 -0.1)">
     <use xlink:href="#DejaVuSans-6e"/>
     <use xlink:href="#DejaVuSans-61" x="63.378906"/>
     <use xlink:href="#DejaVuSans-6e" x="124.658203"/>
    </g>
   </g>
   <g id="text_24">
    <!-- 1.3% -->
    <g style="fill: #ffffff" transform="translate(260.15135 114.549184)scale(0.1 -0.1)">
     <use xlink:href="#DejaVuSans-31"/>
     <use xlink:href="#DejaVuSans-2e" x="63.623047"/>
     <use xlink:href="#DejaVuSans-33" x="95.410156"/>
     <use xlink:href="#DejaVuSans-25" x="159.033203"/>
    </g>
   </g>
   <g id="text_25">
    <!-- nan -->
    <g style="fill: #cccccc" transform="translate(293.821808 57.405583)scale(0.1 -0.1)">
     <use xlink:href="#DejaVuSans-6e"/>
     <use xlink:href="#DejaVuSans-61" x="63.378906"/>
     <use xlink:href="#DejaVuSans-6e" x="124.658203"/>
    </g>
   </g>
   <g id="text_26">
    <!-- 1.3% -->
    <g style="fill: #ffffff" transform="translate(254.938316 111.7713)scale(0.1 -0.1)">
     <use xlink:href="#DejaVuSans-31"/>
     <use xlink:href="#DejaVuSans-2e" x="63.623047"/>
     <use xlink:href="#DejaVuSans-33" x="95.410156"/>
     <use xlink:href="#DejaVuSans-25" x="159.033203"/>
    </g>
   </g>
   <g id="text_27">
    <!-- nan -->
    <g style="fill: #cccccc" transform="translate(283.88127 53.108743)scale(0.1 -0.1)">
     <use xlink:href="#DejaVuSans-6e"/>
     <use xlink:href="#DejaVuSans-61" x="63.378906"/>
     <use xlink:href="#DejaVuSans-6e" x="124.658203"/>
    </g>
   </g>
   <g id="text_28">
    <!-- 1.3% -->
    <g style="fill: #ffffff" transform="translate(249.516205 109.427569)scale(0.1 -0.1)">
     <use xlink:href="#DejaVuSans-31"/>
     <use xlink:href="#DejaVuSans-2e" x="63.623047"/>
     <use xlink:href="#DejaVuSans-33" x="95.410156"/>
     <use xlink:href="#DejaVuSans-25" x="159.033203"/>
    </g>
   </g>
   <g id="text_29">
    <!-- nan -->
    <g style="fill: #cccccc" transform="translate(273.623576 49.636447)scale(0.1 -0.1)">
     <use xlink:href="#DejaVuSans-6e"/>
     <use xlink:href="#DejaVuSans-61" x="63.378906"/>
     <use xlink:href="#DejaVuSans-6e" x="124.658203"/>
    </g>
   </g>
   <g id="text_30">
    <!-- 1.3% -->
    <g style="fill: #ffffff" transform="translate(243.921099 107.533589)scale(0.1 -0.1)">
     <use xlink:href="#DejaVuSans-31"/>
     <use xlink:href="#DejaVuSans-2e" x="63.623047"/>
     <use xlink:href="#DejaVuSans-33" x="95.410156"/>
     <use xlink:href="#DejaVuSans-25" x="159.033203"/>
    </g>
   </g>
   <g id="text_31">
    <!-- nan -->
    <g style="fill: #cccccc" transform="translate(263.11699 47.011801)scale(0.1 -0.1)">
     <use xlink:href="#DejaVuSans-6e"/>
     <use xlink:href="#DejaVuSans-61" x="63.378906"/>
     <use xlink:href="#DejaVuSans-6e" x="124.658203"/>
    </g>
   </g>
   <g id="text_32">
    <!-- 1.3% -->
    <g style="fill: #ffffff" transform="translate(238.190234 106.101964)scale(0.1 -0.1)">
     <use xlink:href="#DejaVuSans-31"/>
     <use xlink:href="#DejaVuSans-2e" x="63.623047"/>
     <use xlink:href="#DejaVuSans-33" x="95.410156"/>
     <use xlink:href="#DejaVuSans-25" x="159.033203"/>
    </g>
   </g>
   <g id="text_33">
    <!-- nan -->
    <g style="fill: #cccccc" transform="translate(252.43143 45.252273)scale(0.1 -0.1)">
     <use xlink:href="#DejaVuSans-6e"/>
     <use xlink:href="#DejaVuSans-61" x="63.378906"/>
     <use xlink:href="#DejaVuSans-6e" x="124.658203"/>
    </g>
   </g>
   <g id="text_34">
    <!-- 1.3% -->
    <g style="fill: #ffffff" transform="translate(232.361747 105.142221)scale(0.1 -0.1)">
     <use xlink:href="#DejaVuSans-31"/>
     <use xlink:href="#DejaVuSans-2e" x="63.623047"/>
     <use xlink:href="#DejaVuSans-33" x="95.410156"/>
     <use xlink:href="#DejaVuSans-25" x="159.033203"/>
    </g>
   </g>
   <g id="text_35">
    <!-- nan -->
    <g style="fill: #cccccc" transform="translate(241.638008 44.369572)scale(0.1 -0.1)">
     <use xlink:href="#DejaVuSans-6e"/>
     <use xlink:href="#DejaVuSans-61" x="63.378906"/>
     <use xlink:href="#DejaVuSans-6e" x="124.658203"/>
    </g>
   </g>
   <g id="text_36">
    <!-- 1.3% -->
    <g style="fill: #ffffff" transform="translate(226.474426 104.660748)scale(0.1 -0.1)">
     <use xlink:href="#DejaVuSans-31"/>
     <use xlink:href="#DejaVuSans-2e" x="63.623047"/>
     <use xlink:href="#DejaVuSans-33" x="95.410156"/>
     <use xlink:href="#DejaVuSans-25" x="159.033203"/>
    </g>
   </g>
  </g>
 </g>
 <defs>
  <clipPath id="pd6385d6117">
   <rect x="57.6" y="41.472" width="357.12" height="266.112"/>
  </clipPath>
 </defs>
</svg>
