<?xml version="1.0" encoding="utf-8" standalone="no"?>
<!DOCTYPE svg PUBLIC "-//W3C//DTD SVG 1.1//EN"
  "http://www.w3.org/Graphics/SVG/1.1/DTD/svg11.dtd">
<svg xmlns:xlink="http://www.w3.org/1999/xlink" width="460.8pt" height="345.6pt" viewBox="0 0 460.8 345.6" xmlns="http://www.w3.org/2000/svg" version="1.1">
 <metadata>
  <rdf:RDF xmlns:dc="http://purl.org/dc/elements/1.1/" xmlns:cc="http://creativecommons.org/ns#" xmlns:rdf="http://www.w3.org/1999/02/22-rdf-syntax-ns#">
   <cc:Work>
    <dc:type rdf:resource="http://purl.org/dc/dcmitype/StillImage"/>
    <dc:date>2023-03-12T21:11:25.030833</dc:date>
    <dc:format>image/svg+xml</dc:format>
    <dc:creator>
     <cc:Agent>
      <dc:title>Matplotlib v3.5.1, https://matplotlib.org/</dc:title>
     </cc:Agent>
    </dc:creator>
   </cc:Work>
  </rdf:RDF>
 </metadata>
 <defs>
  <style type="text/css">*{stroke-linejoin: round; stroke-linecap: butt}</style>
 </defs>
 <g id="figure_1">
  <g id="patch_1">
   <path d="M 0 345.6 
L 460.8 345.6 
L 460.8 0 
L 0 0 
z
" style="fill: #0f0e21"/>
  </g>
  <g id="axes_1">
   <g id="patch_2">
    <path d="M 236.969213 53.568 
C 206.342601 53.568 176.833901 65.21711 154.466065 86.137657 
C 132.098229 107.058205 118.504169 135.722934 116.458537 166.281153 
C 114.412905 196.839373 124.065038 227.060251 143.444861 250.775475 
C 162.824684 274.490699 190.517418 289.968994 220.870764 294.051121 
L 236.969213 174.348393 
L 236.969213 53.568 
z
" style="fill: #1f77b4"/>
   </g>
   <g id="patch_3">
    <path d="M 220.870764 294.051121 
C 231.554917 295.488 242.383512 295.488 253.067665 294.051121 
C 263.751817 292.614242 274.195664 289.753377 284.120583 285.544848 
L 236.969213 174.348393 
L 220.870764 294.051121 
z
" style="fill: #ff7f0e"/>
   </g>
   <g id="patch_4">
    <path d="M 284.120583 285.544848 
C 300.287695 278.6894 314.766901 268.38985 326.546245 255.366037 
C 338.32559 242.342223 347.124107 226.904794 352.326867 210.132675 
L 236.969213 174.348393 
L 284.120583 285.544848 
z
" style="fill: #2ca02c"/>
   </g>
   <g id="patch_5">
    <path d="M 352.326867 210.132675 
C 354.321282 203.703287 355.774704 197.118402 356.671941 190.446845 
C 357.569178 183.775287 357.907095 177.040381 357.682158 170.312519 
L 236.969213 174.348393 
L 352.326867 210.132675 
z
" style="fill: #d62728"/>
   </g>
   <g id="patch_6">
    <path d="M 357.682158 170.312519 
C 357.547246 166.277303 357.210084 162.251389 356.671941 158.249943 
C 356.133799 154.248496 355.395354 150.276549 354.459387 146.349065 
L 236.969213 174.348393 
L 357.682158 170.312519 
z
" style="fill: #9467bd"/>
   </g>
   <g id="patch_7">
    <path d="M 354.459387 146.349065 
C 353.835481 143.731046 353.124245 141.134612 352.326868 138.564113 
C 351.529491 135.993613 350.64642 133.450483 349.679134 130.938982 
L 236.969213 174.348393 
L 354.459387 146.349065 
z
" style="fill: #8c564b"/>
   </g>
   <g id="patch_8">
    <path d="M 349.679134 130.938982 
C 348.711848 128.427481 347.660886 125.949013 346.52801 123.507728 
C 345.395134 121.066443 344.180977 118.663706 342.887571 116.303541 
L 236.969213 174.348393 
L 349.679134 130.938982 
z
" style="fill: #e377c2"/>
   </g>
   <g id="patch_9">
    <path d="M 342.887571 116.303541 
C 342.240913 115.123541 341.574581 113.954429 340.888855 112.796696 
C 340.203128 111.638963 339.498103 110.49277 338.774074 109.358596 
L 236.969213 174.348393 
L 342.887571 116.303541 
z
" style="fill: #7f7f7f"/>
   </g>
   <g id="patch_10">
    <path d="M 338.774074 109.358596 
C 338.050044 108.224423 337.307113 107.102428 336.54559 105.993082 
C 335.784066 104.883736 335.004058 103.787193 334.205891 102.703912 
L 236.969213 174.348393 
L 338.774074 109.358596 
z
" style="fill: #bcbd22"/>
   </g>
   <g id="patch_11">
    <path d="M 334.205891 102.703912 
C 332.609447 100.537199 330.941027 98.424452 329.203427 96.369209 
C 327.465827 94.313966 325.660017 92.317375 323.789022 90.38278 
L 236.969213 174.348393 
L 334.205891 102.703912 
z
" style="fill: #17becf"/>
   </g>
   <g id="patch_12">
    <path d="M 323.789022 90.38278 
C 322.853589 89.41555 321.902059 88.46402 320.934829 87.528588 
C 319.9676 86.593156 318.984805 85.673952 317.986858 84.771362 
L 236.969213 174.348393 
L 323.789022 90.38278 
z
" style="fill: #1f77b4"/>
   </g>
   <g id="patch_13">
    <path d="M 317.986858 84.771362 
C 316.988911 83.868772 315.975951 82.982922 314.948401 82.114182 
C 313.920851 81.245443 312.878855 80.393936 311.82285 79.560017 
L 236.969213 174.348393 
L 317.986858 84.771362 
z
" style="fill: #ff7f0e"/>
   </g>
   <g id="patch_14">
    <path d="M 311.82285 79.560017 
C 310.766845 78.726098 309.696979 77.909884 308.613698 77.111717 
C 307.530418 76.313551 306.433874 75.533542 305.324528 74.772019 
L 236.969213 174.348393 
L 311.82285 79.560017 
z
" style="fill: #2ca02c"/>
   </g>
   <g id="patch_15">
    <path d="M 305.324528 74.772019 
C 304.215182 74.010496 303.093187 73.267564 301.959014 72.543535 
C 300.824841 71.819506 299.678648 71.11448 298.520914 70.428754 
L 236.969213 174.348393 
L 305.324528 74.772019 
z
" style="fill: #d62728"/>
   </g>
   <g id="patch_16">
    <path d="M 298.520914 70.428754 
C 297.363181 69.743027 296.19407 69.076696 295.014069 68.430038 
C 293.834069 67.78338 292.643345 67.156486 291.442396 66.549619 
L 236.969213 174.348393 
L 298.520914 70.428754 
z
" style="fill: #9467bd"/>
   </g>
   <g id="patch_17">
    <path d="M 291.442396 66.549619 
C 290.241446 65.942752 289.03044 65.355996 287.809883 64.789598 
C 286.589325 64.223199 285.359388 63.677237 284.120587 63.151939 
L 236.969213 174.348393 
L 291.442396 66.549619 
z
" style="fill: #8c564b"/>
   </g>
   <g id="patch_18">
    <path d="M 284.120587 63.151939 
C 282.881785 62.626642 281.634292 62.122083 280.378629 61.638474 
C 279.122966 61.154864 277.85931 60.692272 276.588188 60.25089 
L 236.969213 174.348393 
L 284.120587 63.151939 
z
" style="fill: #e377c2"/>
   </g>
   <g id="patch_19">
    <path d="M 276.588188 60.25089 
C 275.317067 59.809509 274.038658 59.3894 272.753498 58.990739 
C 271.468338 58.592079 270.176606 58.214922 268.878842 57.859428 
L 236.969213 174.348393 
L 276.588188 60.25089 
z
" style="fill: #7f7f7f"/>
   </g>
   <g id="patch_20">
    <path d="M 268.878842 57.859428 
C 267.581078 57.503934 266.277464 57.170151 264.968546 56.85822 
C 263.659629 56.546289 262.345589 56.256253 261.026979 55.988234 
L 236.969213 174.348393 
L 268.878842 57.859428 
z
" style="fill: #bcbd22"/>
   </g>
   <g id="patch_21">
    <path d="M 261.026979 55.988234 
C 259.708369 55.720215 258.385372 55.474249 257.058543 55.250441 
C 255.731713 55.026633 254.401236 54.825013 253.067669 54.645665 
L 236.969213 174.348393 
L 261.026979 55.988234 
z
" style="fill: #17becf"/>
   </g>
   <g id="patch_22">
    <path d="M 253.067669 54.645665 
C 251.734102 54.466318 250.39763 54.309268 249.058815 54.174582 
C 247.72 54.039896 246.379027 53.927592 245.036459 53.837718 
L 236.969213 174.348393 
L 253.067669 54.645665 
z
" style="fill: #1f77b4"/>
   </g>
   <g id="patch_23">
    <path d="M 245.036459 53.837718 
C 243.693891 53.747843 242.349914 53.680411 241.005093 53.635448 
C 239.660271 53.590486 238.314792 53.568 236.969219 53.568 
L 236.969213 174.348393 
L 245.036459 53.837718 
z
" style="fill: #ff7f0e"/>
   </g>
   <g id="patch_24">
    <path d="M 236.969213 210.582511 
C 246.578613 210.582511 255.795731 206.764655 262.590603 199.969783 
C 269.385476 193.174911 273.203331 183.957793 273.203331 174.348393 
C 273.203331 164.738992 269.385476 155.521875 262.590603 148.727002 
C 255.795731 141.93213 246.578613 138.114275 236.969213 138.114275 
C 227.359813 138.114275 218.142695 141.93213 211.347822 148.727002 
C 204.55295 155.521875 200.735095 164.738992 200.735095 174.348393 
C 200.735095 183.957793 204.55295 193.174911 211.347822 199.969783 
C 218.142695 206.764655 227.359813 210.582511 236.969213 210.582511 
z
" clip-path="url(#p235899aa2c)" style="fill: #0f0e21; stroke: #0f0e21; stroke-linejoin: miter"/>
   </g>
   <g id="matplotlib.axis_1"/>
   <g id="matplotlib.axis_2"/>
   <g id="text_1">
    <!-- 800.0 -->
    <g style="fill: #cccccc" transform="translate(75.779345 168.233804)scale(0.1 -0.1)">
     <defs>
      <path id="DejaVuSans-38" d="M 2034 2216 
Q 1584 2216 1326 1975 
Q 1069 1734 1069 1313 
Q 1069 891 1326 650 
Q 1584 409 2034 409 
Q 2484 409 2743 651 
Q 3003 894 3003 1313 
Q 3003 1734 2745 1975 
Q 2488 2216 2034 2216 
z
M 1403 2484 
Q 997 2584 770 2862 
Q 544 3141 544 3541 
Q 544 4100 942 4425 
Q 1341 4750 2034 4750 
Q 2731 4750 3128 4425 
Q 3525 4100 3525 3541 
Q 3525 3141 3298 2862 
Q 3072 2584 2669 2484 
Q 3125 2378 3379 2068 
Q 3634 1759 3634 1313 
Q 3634 634 3220 271 
Q 2806 -91 2034 -91 
Q 1263 -91 848 271 
Q 434 634 434 1313 
Q 434 1759 690 2068 
Q 947 2378 1403 2484 
z
M 1172 3481 
Q 1172 3119 1398 2916 
Q 1625 2713 2034 2713 
Q 2441 2713 2670 2916 
Q 2900 3119 2900 3481 
Q 2900 3844 2670 4047 
Q 2441 4250 2034 4250 
Q 1625 4250 1398 4047 
Q 1172 3844 1172 3481 
z
" transform="scale(0.015625)"/>
      <path id="DejaVuSans-30" d="M 2034 4250 
Q 1547 4250 1301 3770 
Q 1056 3291 1056 2328 
Q 1056 1369 1301 889 
Q 1547 409 2034 409 
Q 2525 409 2770 889 
Q 3016 1369 3016 2328 
Q 3016 3291 2770 3770 
Q 2525 4250 2034 4250 
z
M 2034 4750 
Q 2819 4750 3233 4129 
Q 3647 3509 3647 2328 
Q 3647 1150 3233 529 
Q 2819 -91 2034 -91 
Q 1250 -91 836 529 
Q 422 1150 422 2328 
Q 422 3509 836 4129 
Q 1250 4750 2034 4750 
z
" transform="scale(0.015625)"/>
      <path id="DejaVuSans-2e" d="M 684 794 
L 1344 794 
L 1344 0 
L 684 0 
L 684 794 
z
" transform="scale(0.015625)"/>
     </defs>
     <use xlink:href="#DejaVuSans-38"/>
     <use xlink:href="#DejaVuSans-30" x="63.623047"/>
     <use xlink:href="#DejaVuSans-30" x="127.246094"/>
     <use xlink:href="#DejaVuSans-2e" x="190.869141"/>
     <use xlink:href="#DejaVuSans-30" x="222.65625"/>
    </g>
   </g>
   <g id="text_2">
    <!-- 47.9% -->
    <g style="fill: #ffffff" transform="translate(148.779214 172.267424)scale(0.1 -0.1)">
     <defs>
      <path id="DejaVuSans-34" d="M 2419 4116 
L 825 1625 
L 2419 1625 
L 2419 4116 
z
M 2253 4666 
L 3047 4666 
L 3047 1625 
L 3713 1625 
L 3713 1100 
L 3047 1100 
L 3047 0 
L 2419 0 
L 2419 1100 
L 313 1100 
L 313 1709 
L 2253 4666 
z
" transform="scale(0.015625)"/>
      <path id="DejaVuSans-37" d="M 525 4666 
L 3525 4666 
L 3525 4397 
L 1831 0 
L 1172 0 
L 2766 4134 
L 525 4134 
L 525 4666 
z
" transform="scale(0.015625)"/>
      <path id="DejaVuSans-39" d="M 703 97 
L 703 672 
Q 941 559 1184 500 
Q 1428 441 1663 441 
Q 2288 441 2617 861 
Q 2947 1281 2994 2138 
Q 2813 1869 2534 1725 
Q 2256 1581 1919 1581 
Q 1219 1581 811 2004 
Q 403 2428 403 3163 
Q 403 3881 828 4315 
Q 1253 4750 1959 4750 
Q 2769 4750 3195 4129 
Q 3622 3509 3622 2328 
Q 3622 1225 3098 567 
Q 2575 -91 1691 -91 
Q 1453 -91 1209 -44 
Q 966 3 703 97 
z
M 1959 2075 
Q 2384 2075 2632 2365 
Q 2881 2656 2881 3163 
Q 2881 3666 2632 3958 
Q 2384 4250 1959 4250 
Q 1534 4250 1286 3958 
Q 1038 3666 1038 3163 
Q 1038 2656 1286 2365 
Q 1534 2075 1959 2075 
z
" transform="scale(0.015625)"/>
      <path id="DejaVuSans-25" d="M 4653 2053 
Q 4381 2053 4226 1822 
Q 4072 1591 4072 1178 
Q 4072 772 4226 539 
Q 4381 306 4653 306 
Q 4919 306 5073 539 
Q 5228 772 5228 1178 
Q 5228 1588 5073 1820 
Q 4919 2053 4653 2053 
z
M 4653 2450 
Q 5147 2450 5437 2106 
Q 5728 1763 5728 1178 
Q 5728 594 5436 251 
Q 5144 -91 4653 -91 
Q 4153 -91 3862 251 
Q 3572 594 3572 1178 
Q 3572 1766 3864 2108 
Q 4156 2450 4653 2450 
z
M 1428 4353 
Q 1159 4353 1004 4120 
Q 850 3888 850 3481 
Q 850 3069 1003 2837 
Q 1156 2606 1428 2606 
Q 1700 2606 1854 2837 
Q 2009 3069 2009 3481 
Q 2009 3884 1853 4118 
Q 1697 4353 1428 4353 
z
M 4250 4750 
L 4750 4750 
L 1831 -91 
L 1331 -91 
L 4250 4750 
z
M 1428 4750 
Q 1922 4750 2215 4408 
Q 2509 4066 2509 3481 
Q 2509 2891 2217 2550 
Q 1925 2209 1428 2209 
Q 931 2209 642 2551 
Q 353 2894 353 3481 
Q 353 4063 643 4406 
Q 934 4750 1428 4750 
z
" transform="scale(0.015625)"/>
     </defs>
     <use xlink:href="#DejaVuSans-34"/>
     <use xlink:href="#DejaVuSans-37" x="63.623047"/>
     <use xlink:href="#DejaVuSans-2e" x="127.246094"/>
     <use xlink:href="#DejaVuSans-39" x="159.033203"/>
     <use xlink:href="#DejaVuSans-25" x="222.65625"/>
    </g>
   </g>
   <g id="text_3">
    <!-- 900.0 -->
    <g style="fill: #cccccc" transform="translate(254.67751 308.780769)scale(0.1 -0.1)">
     <use xlink:href="#DejaVuSans-39"/>
     <use xlink:href="#DejaVuSans-30" x="63.623047"/>
     <use xlink:href="#DejaVuSans-30" x="127.246094"/>
     <use xlink:href="#DejaVuSans-2e" x="190.869141"/>
     <use xlink:href="#DejaVuSans-30" x="222.65625"/>
    </g>
   </g>
   <g id="text_4">
    <!-- 8.5% -->
    <g style="fill: #ffffff" transform="translate(233.92594 248.929405)scale(0.1 -0.1)">
     <defs>
      <path id="DejaVuSans-35" d="M 691 4666 
L 3169 4666 
L 3169 4134 
L 1269 4134 
L 1269 2991 
Q 1406 3038 1543 3061 
Q 1681 3084 1819 3084 
Q 2600 3084 3056 2656 
Q 3513 2228 3513 1497 
Q 3513 744 3044 326 
Q 2575 -91 1722 -91 
Q 1428 -91 1123 -41 
Q 819 9 494 109 
L 494 744 
Q 775 591 1075 516 
Q 1375 441 1709 441 
Q 2250 441 2565 725 
Q 2881 1009 2881 1497 
Q 2881 1984 2565 2268 
Q 2250 2553 1709 2553 
Q 1456 2553 1204 2497 
Q 953 2441 691 2322 
L 691 4666 
z
" transform="scale(0.015625)"/>
     </defs>
     <use xlink:href="#DejaVuSans-38"/>
     <use xlink:href="#DejaVuSans-2e" x="63.623047"/>
     <use xlink:href="#DejaVuSans-35" x="95.410156"/>
     <use xlink:href="#DejaVuSans-25" x="159.033203"/>
    </g>
   </g>
   <g id="text_5">
    <!-- 1000.0 -->
    <g style="fill: #cccccc" transform="translate(335.503948 266.227176)scale(0.1 -0.1)">
     <defs>
      <path id="DejaVuSans-31" d="M 794 531 
L 1825 531 
L 1825 4091 
L 703 3866 
L 703 4441 
L 1819 4666 
L 2450 4666 
L 2450 531 
L 3481 531 
L 3481 0 
L 794 0 
L 794 531 
z
" transform="scale(0.015625)"/>
     </defs>
     <use xlink:href="#DejaVuSans-31"/>
     <use xlink:href="#DejaVuSans-30" x="63.623047"/>
     <use xlink:href="#DejaVuSans-30" x="127.246094"/>
     <use xlink:href="#DejaVuSans-30" x="190.869141"/>
     <use xlink:href="#DejaVuSans-2e" x="254.492188"/>
     <use xlink:href="#DejaVuSans-30" x="286.279297"/>
    </g>
   </g>
   <g id="text_6">
    <!-- 13.8% -->
    <g style="fill: #ffffff" transform="translate(274.831838 225.718354)scale(0.1 -0.1)">
     <defs>
      <path id="DejaVuSans-33" d="M 2597 2516 
Q 3050 2419 3304 2112 
Q 3559 1806 3559 1356 
Q 3559 666 3084 287 
Q 2609 -91 1734 -91 
Q 1441 -91 1130 -33 
Q 819 25 488 141 
L 488 750 
Q 750 597 1062 519 
Q 1375 441 1716 441 
Q 2309 441 2620 675 
Q 2931 909 2931 1356 
Q 2931 1769 2642 2001 
Q 2353 2234 1838 2234 
L 1294 2234 
L 1294 2753 
L 1863 2753 
Q 2328 2753 2575 2939 
Q 2822 3125 2822 3475 
Q 2822 3834 2567 4026 
Q 2313 4219 1838 4219 
Q 1578 4219 1281 4162 
Q 984 4106 628 3988 
L 628 4550 
Q 988 4650 1302 4700 
Q 1616 4750 1894 4750 
Q 2613 4750 3031 4423 
Q 3450 4097 3450 3541 
Q 3450 3153 3228 2886 
Q 3006 2619 2597 2516 
z
" transform="scale(0.015625)"/>
     </defs>
     <use xlink:href="#DejaVuSans-31"/>
     <use xlink:href="#DejaVuSans-33" x="63.623047"/>
     <use xlink:href="#DejaVuSans-2e" x="127.246094"/>
     <use xlink:href="#DejaVuSans-38" x="159.033203"/>
     <use xlink:href="#DejaVuSans-25" x="222.65625"/>
    </g>
   </g>
   <g id="text_7">
    <!-- 1100.0 -->
    <g style="fill: #cccccc" transform="translate(368.642214 194.816065)scale(0.1 -0.1)">
     <use xlink:href="#DejaVuSans-31"/>
     <use xlink:href="#DejaVuSans-31" x="63.623047"/>
     <use xlink:href="#DejaVuSans-30" x="127.246094"/>
     <use xlink:href="#DejaVuSans-30" x="190.869141"/>
     <use xlink:href="#DejaVuSans-2e" x="254.492188"/>
     <use xlink:href="#DejaVuSans-30" x="286.279297"/>
    </g>
   </g>
   <g id="text_8">
    <!-- 5.3% -->
    <g style="fill: #ffffff" transform="translate(296.088506 186.766839)scale(0.1 -0.1)">
     <use xlink:href="#DejaVuSans-35"/>
     <use xlink:href="#DejaVuSans-2e" x="63.623047"/>
     <use xlink:href="#DejaVuSans-33" x="95.410156"/>
     <use xlink:href="#DejaVuSans-25" x="159.033203"/>
    </g>
   </g>
   <g id="text_9">
    <!-- 1300.0 -->
    <g style="fill: #cccccc" transform="translate(368.642214 159.399472)scale(0.1 -0.1)">
     <use xlink:href="#DejaVuSans-31"/>
     <use xlink:href="#DejaVuSans-33" x="63.623047"/>
     <use xlink:href="#DejaVuSans-30" x="127.246094"/>
     <use xlink:href="#DejaVuSans-30" x="190.869141"/>
     <use xlink:href="#DejaVuSans-2e" x="254.492188"/>
     <use xlink:href="#DejaVuSans-30" x="286.279297"/>
    </g>
   </g>
   <g id="text_10">
    <!-- 3.2% -->
    <g style="fill: #ffffff" transform="translate(296.088506 167.448698)scale(0.1 -0.1)">
     <defs>
      <path id="DejaVuSans-32" d="M 1228 531 
L 3431 531 
L 3431 0 
L 469 0 
L 469 531 
Q 828 903 1448 1529 
Q 2069 2156 2228 2338 
Q 2531 2678 2651 2914 
Q 2772 3150 2772 3378 
Q 2772 3750 2511 3984 
Q 2250 4219 1831 4219 
Q 1534 4219 1204 4116 
Q 875 4013 500 3803 
L 500 4441 
Q 881 4594 1212 4672 
Q 1544 4750 1819 4750 
Q 2544 4750 2975 4387 
Q 3406 4025 3406 3419 
Q 3406 3131 3298 2873 
Q 3191 2616 2906 2266 
Q 2828 2175 2409 1742 
Q 1991 1309 1228 531 
z
" transform="scale(0.015625)"/>
     </defs>
     <use xlink:href="#DejaVuSans-33"/>
     <use xlink:href="#DejaVuSans-2e" x="63.623047"/>
     <use xlink:href="#DejaVuSans-32" x="95.410156"/>
     <use xlink:href="#DejaVuSans-25" x="159.033203"/>
    </g>
   </g>
   <g id="text_11">
    <!-- 1400.0 -->
    <g style="fill: #cccccc" transform="translate(363.862633 137.74506)scale(0.1 -0.1)">
     <use xlink:href="#DejaVuSans-31"/>
     <use xlink:href="#DejaVuSans-34" x="63.623047"/>
     <use xlink:href="#DejaVuSans-30" x="127.246094"/>
     <use xlink:href="#DejaVuSans-30" x="190.869141"/>
     <use xlink:href="#DejaVuSans-2e" x="254.492188"/>
     <use xlink:href="#DejaVuSans-30" x="286.279297"/>
    </g>
   </g>
   <g id="text_12">
    <!-- 2.1% -->
    <g style="fill: #ffffff" transform="translate(293.481462 155.6372)scale(0.1 -0.1)">
     <use xlink:href="#DejaVuSans-32"/>
     <use xlink:href="#DejaVuSans-2e" x="63.623047"/>
     <use xlink:href="#DejaVuSans-31" x="95.410156"/>
     <use xlink:href="#DejaVuSans-25" x="159.033203"/>
    </g>
   </g>
   <g id="text_13">
    <!-- 1200.0 -->
    <g style="fill: #cccccc" transform="translate(357.48389 121.183037)scale(0.1 -0.1)">
     <use xlink:href="#DejaVuSans-31"/>
     <use xlink:href="#DejaVuSans-32" x="63.623047"/>
     <use xlink:href="#DejaVuSans-30" x="127.246094"/>
     <use xlink:href="#DejaVuSans-30" x="190.869141"/>
     <use xlink:href="#DejaVuSans-2e" x="254.492188"/>
     <use xlink:href="#DejaVuSans-30" x="286.279297"/>
    </g>
   </g>
   <g id="text_14">
    <!-- 2.1% -->
    <g style="fill: #ffffff" transform="translate(290.002148 146.603369)scale(0.1 -0.1)">
     <use xlink:href="#DejaVuSans-32"/>
     <use xlink:href="#DejaVuSans-2e" x="63.623047"/>
     <use xlink:href="#DejaVuSans-31" x="95.410156"/>
     <use xlink:href="#DejaVuSans-25" x="159.033203"/>
    </g>
   </g>
   <g id="text_15">
    <!-- 1600.0 -->
    <g style="fill: #cccccc" transform="translate(351.280819 109.400901)scale(0.1 -0.1)">
     <defs>
      <path id="DejaVuSans-36" d="M 2113 2584 
Q 1688 2584 1439 2293 
Q 1191 2003 1191 1497 
Q 1191 994 1439 701 
Q 1688 409 2113 409 
Q 2538 409 2786 701 
Q 3034 994 3034 1497 
Q 3034 2003 2786 2293 
Q 2538 2584 2113 2584 
z
M 3366 4563 
L 3366 3988 
Q 3128 4100 2886 4159 
Q 2644 4219 2406 4219 
Q 1781 4219 1451 3797 
Q 1122 3375 1075 2522 
Q 1259 2794 1537 2939 
Q 1816 3084 2150 3084 
Q 2853 3084 3261 2657 
Q 3669 2231 3669 1497 
Q 3669 778 3244 343 
Q 2819 -91 2113 -91 
Q 1303 -91 875 529 
Q 447 1150 447 2328 
Q 447 3434 972 4092 
Q 1497 4750 2381 4750 
Q 2619 4750 2861 4703 
Q 3103 4656 3366 4563 
z
" transform="scale(0.015625)"/>
     </defs>
     <use xlink:href="#DejaVuSans-31"/>
     <use xlink:href="#DejaVuSans-36" x="63.623047"/>
     <use xlink:href="#DejaVuSans-30" x="127.246094"/>
     <use xlink:href="#DejaVuSans-30" x="190.869141"/>
     <use xlink:href="#DejaVuSans-2e" x="254.492188"/>
     <use xlink:href="#DejaVuSans-30" x="286.279297"/>
    </g>
   </g>
   <g id="text_16">
    <!-- 1.1% -->
    <g style="fill: #ffffff" transform="translate(286.618654 140.17675)scale(0.1 -0.1)">
     <use xlink:href="#DejaVuSans-31"/>
     <use xlink:href="#DejaVuSans-2e" x="63.623047"/>
     <use xlink:href="#DejaVuSans-31" x="95.410156"/>
     <use xlink:href="#DejaVuSans-25" x="159.033203"/>
    </g>
   </g>
   <g id="text_17">
    <!-- 1500.0 -->
    <g style="fill: #cccccc" transform="translate(346.503227 101.916926)scale(0.1 -0.1)">
     <use xlink:href="#DejaVuSans-31"/>
     <use xlink:href="#DejaVuSans-35" x="63.623047"/>
     <use xlink:href="#DejaVuSans-30" x="127.246094"/>
     <use xlink:href="#DejaVuSans-30" x="190.869141"/>
     <use xlink:href="#DejaVuSans-2e" x="254.492188"/>
     <use xlink:href="#DejaVuSans-30" x="286.279297"/>
    </g>
   </g>
   <g id="text_18">
    <!-- 1.1% -->
    <g style="fill: #ffffff" transform="translate(284.012695 136.094581)scale(0.1 -0.1)">
     <use xlink:href="#DejaVuSans-31"/>
     <use xlink:href="#DejaVuSans-2e" x="63.623047"/>
     <use xlink:href="#DejaVuSans-31" x="95.410156"/>
     <use xlink:href="#DejaVuSans-25" x="159.033203"/>
    </g>
   </g>
   <g id="text_19">
    <!-- 1700.0 -->
    <g style="fill: #cccccc" transform="translate(338.426848 91.330666)scale(0.1 -0.1)">
     <use xlink:href="#DejaVuSans-31"/>
     <use xlink:href="#DejaVuSans-37" x="63.623047"/>
     <use xlink:href="#DejaVuSans-30" x="127.246094"/>
     <use xlink:href="#DejaVuSans-30" x="190.869141"/>
     <use xlink:href="#DejaVuSans-2e" x="254.492188"/>
     <use xlink:href="#DejaVuSans-30" x="286.279297"/>
    </g>
   </g>
   <g id="text_20">
    <!-- 2.1% -->
    <g style="fill: #ffffff" transform="translate(279.607397 130.320258)scale(0.1 -0.1)">
     <use xlink:href="#DejaVuSans-32"/>
     <use xlink:href="#DejaVuSans-2e" x="63.623047"/>
     <use xlink:href="#DejaVuSans-31" x="95.410156"/>
     <use xlink:href="#DejaVuSans-25" x="159.033203"/>
    </g>
   </g>
   <g id="text_21">
    <!-- nan -->
    <g style="fill: #cccccc" transform="translate(329.331391 81.605982)scale(0.1 -0.1)">
     <defs>
      <path id="DejaVuSans-6e" d="M 3513 2113 
L 3513 0 
L 2938 0 
L 2938 2094 
Q 2938 2591 2744 2837 
Q 2550 3084 2163 3084 
Q 1697 3084 1428 2787 
Q 1159 2491 1159 1978 
L 1159 0 
L 581 0 
L 581 3500 
L 1159 3500 
L 1159 2956 
Q 1366 3272 1645 3428 
Q 1925 3584 2291 3584 
Q 2894 3584 3203 3211 
Q 3513 2838 3513 2113 
z
" transform="scale(0.015625)"/>
      <path id="DejaVuSans-61" d="M 2194 1759 
Q 1497 1759 1228 1600 
Q 959 1441 959 1056 
Q 959 750 1161 570 
Q 1363 391 1709 391 
Q 2188 391 2477 730 
Q 2766 1069 2766 1631 
L 2766 1759 
L 2194 1759 
z
M 3341 1997 
L 3341 0 
L 2766 0 
L 2766 531 
Q 2569 213 2275 61 
Q 1981 -91 1556 -91 
Q 1019 -91 701 211 
Q 384 513 384 1019 
Q 384 1609 779 1909 
Q 1175 2209 1959 2209 
L 2766 2209 
L 2766 2266 
Q 2766 2663 2505 2880 
Q 2244 3097 1772 3097 
Q 1472 3097 1187 3025 
Q 903 2953 641 2809 
L 641 3341 
Q 956 3463 1253 3523 
Q 1550 3584 1831 3584 
Q 2591 3584 2966 3190 
Q 3341 2797 3341 1997 
z
" transform="scale(0.015625)"/>
     </defs>
     <use xlink:href="#DejaVuSans-6e"/>
     <use xlink:href="#DejaVuSans-61" x="63.378906"/>
     <use xlink:href="#DejaVuSans-6e" x="124.658203"/>
    </g>
   </g>
   <g id="text_22">
    <!-- 1.1% -->
    <g style="fill: #ffffff" transform="translate(274.646239 125.015885)scale(0.1 -0.1)">
     <use xlink:href="#DejaVuSans-31"/>
     <use xlink:href="#DejaVuSans-2e" x="63.623047"/>
     <use xlink:href="#DejaVuSans-31" x="95.410156"/>
     <use xlink:href="#DejaVuSans-25" x="159.033203"/>
    </g>
   </g>
   <g id="text_23">
    <!-- nan -->
    <g style="fill: #cccccc" transform="translate(322.74632 75.650136)scale(0.1 -0.1)">
     <use xlink:href="#DejaVuSans-6e"/>
     <use xlink:href="#DejaVuSans-61" x="63.378906"/>
     <use xlink:href="#DejaVuSans-6e" x="124.658203"/>
    </g>
   </g>
   <g id="text_24">
    <!-- 1.1% -->
    <g style="fill: #ffffff" transform="translate(271.054382 121.767242)scale(0.1 -0.1)">
     <use xlink:href="#DejaVuSans-31"/>
     <use xlink:href="#DejaVuSans-2e" x="63.623047"/>
     <use xlink:href="#DejaVuSans-31" x="95.410156"/>
     <use xlink:href="#DejaVuSans-25" x="159.033203"/>
    </g>
   </g>
   <g id="text_25">
    <!-- nan -->
    <g style="fill: #cccccc" transform="translate(315.778147 70.147425)scale(0.1 -0.1)">
     <use xlink:href="#DejaVuSans-6e"/>
     <use xlink:href="#DejaVuSans-61" x="63.378906"/>
     <use xlink:href="#DejaVuSans-6e" x="124.658203"/>
    </g>
   </g>
   <g id="text_26">
    <!-- 1.1% -->
    <g style="fill: #ffffff" transform="translate(267.25356 118.765763)scale(0.1 -0.1)">
     <use xlink:href="#DejaVuSans-31"/>
     <use xlink:href="#DejaVuSans-2e" x="63.623047"/>
     <use xlink:href="#DejaVuSans-31" x="95.410156"/>
     <use xlink:href="#DejaVuSans-25" x="159.033203"/>
    </g>
   </g>
   <g id="text_27">
    <!-- nan -->
    <g style="fill: #cccccc" transform="translate(308.457994 65.122424)scale(0.1 -0.1)">
     <use xlink:href="#DejaVuSans-6e"/>
     <use xlink:href="#DejaVuSans-61" x="63.378906"/>
     <use xlink:href="#DejaVuSans-6e" x="124.658203"/>
    </g>
   </g>
   <g id="text_28">
    <!-- 1.1% -->
    <g style="fill: #ffffff" transform="translate(263.26075 116.024853)scale(0.1 -0.1)">
     <use xlink:href="#DejaVuSans-31"/>
     <use xlink:href="#DejaVuSans-2e" x="63.623047"/>
     <use xlink:href="#DejaVuSans-31" x="95.410156"/>
     <use xlink:href="#DejaVuSans-25" x="159.033203"/>
    </g>
   </g>
   <g id="text_29">
    <!-- nan -->
    <g style="fill: #cccccc" transform="translate(300.818555 60.597577)scale(0.1 -0.1)">
     <use xlink:href="#DejaVuSans-6e"/>
     <use xlink:href="#DejaVuSans-61" x="63.378906"/>
     <use xlink:href="#DejaVuSans-6e" x="124.658203"/>
    </g>
   </g>
   <g id="text_30">
    <!-- 1.1% -->
    <g style="fill: #ffffff" transform="translate(259.093783 113.556755)scale(0.1 -0.1)">
     <use xlink:href="#DejaVuSans-31"/>
     <use xlink:href="#DejaVuSans-2e" x="63.623047"/>
     <use xlink:href="#DejaVuSans-31" x="95.410156"/>
     <use xlink:href="#DejaVuSans-25" x="159.033203"/>
    </g>
   </g>
   <g id="text_31">
    <!-- nan -->
    <g style="fill: #cccccc" transform="translate(292.893949 56.593093)scale(0.1 -0.1)">
     <use xlink:href="#DejaVuSans-6e"/>
     <use xlink:href="#DejaVuSans-61" x="63.378906"/>
     <use xlink:href="#DejaVuSans-6e" x="124.658203"/>
    </g>
   </g>
   <g id="text_32">
    <!-- 1.1% -->
    <g style="fill: #ffffff" transform="translate(254.771271 111.372491)scale(0.1 -0.1)">
     <use xlink:href="#DejaVuSans-31"/>
     <use xlink:href="#DejaVuSans-2e" x="63.623047"/>
     <use xlink:href="#DejaVuSans-31" x="95.410156"/>
     <use xlink:href="#DejaVuSans-25" x="159.033203"/>
    </g>
   </g>
   <g id="text_33">
    <!-- nan -->
    <g style="fill: #cccccc" transform="translate(284.71957 53.126857)scale(0.1 -0.1)">
     <use xlink:href="#DejaVuSans-6e"/>
     <use xlink:href="#DejaVuSans-61" x="63.378906"/>
     <use xlink:href="#DejaVuSans-6e" x="124.658203"/>
    </g>
   </g>
   <g id="text_34">
    <!-- 1.1% -->
    <g style="fill: #ffffff" transform="translate(250.312519 109.481816)scale(0.1 -0.1)">
     <use xlink:href="#DejaVuSans-31"/>
     <use xlink:href="#DejaVuSans-2e" x="63.623047"/>
     <use xlink:href="#DejaVuSans-31" x="95.410156"/>
     <use xlink:href="#DejaVuSans-25" x="159.033203"/>
    </g>
   </g>
   <g id="text_35">
    <!-- nan -->
    <g style="fill: #cccccc" transform="translate(276.331927 50.214349)scale(0.1 -0.1)">
     <use xlink:href="#DejaVuSans-6e"/>
     <use xlink:href="#DejaVuSans-61" x="63.378906"/>
     <use xlink:href="#DejaVuSans-6e" x="124.658203"/>
    </g>
   </g>
   <g id="text_36">
    <!-- 1.1% -->
    <g style="fill: #ffffff" transform="translate(245.73744 107.893176)scale(0.1 -0.1)">
     <use xlink:href="#DejaVuSans-31"/>
     <use xlink:href="#DejaVuSans-2e" x="63.623047"/>
     <use xlink:href="#DejaVuSans-31" x="95.410156"/>
     <use xlink:href="#DejaVuSans-25" x="159.033203"/>
    </g>
   </g>
   <g id="text_37">
    <!-- nan -->
    <g style="fill: #cccccc" transform="translate(267.76848 47.868578)scale(0.1 -0.1)">
     <use xlink:href="#DejaVuSans-6e"/>
     <use xlink:href="#DejaVuSans-61" x="63.378906"/>
     <use xlink:href="#DejaVuSans-6e" x="124.658203"/>
    </g>
   </g>
   <g id="text_38">
    <!-- 1.1% -->
    <g style="fill: #ffffff" transform="translate(241.066469 106.613664)scale(0.1 -0.1)">
     <use xlink:href="#DejaVuSans-31"/>
     <use xlink:href="#DejaVuSans-2e" x="63.623047"/>
     <use xlink:href="#DejaVuSans-31" x="95.410156"/>
     <use xlink:href="#DejaVuSans-25" x="159.033203"/>
    </g>
   </g>
   <g id="text_39">
    <!-- nan -->
    <g style="fill: #cccccc" transform="translate(259.067476 46.100021)scale(0.1 -0.1)">
     <use xlink:href="#DejaVuSans-6e"/>
     <use xlink:href="#DejaVuSans-61" x="63.378906"/>
     <use xlink:href="#DejaVuSans-6e" x="124.658203"/>
    </g>
   </g>
   <g id="text_40">
    <!-- 1.1% -->
    <g style="fill: #ffffff" transform="translate(236.320467 105.648997)scale(0.1 -0.1)">
     <use xlink:href="#DejaVuSans-31"/>
     <use xlink:href="#DejaVuSans-2e" x="63.623047"/>
     <use xlink:href="#DejaVuSans-31" x="95.410156"/>
     <use xlink:href="#DejaVuSans-25" x="159.033203"/>
    </g>
   </g>
   <g id="text_41">
    <!-- nan -->
    <g style="fill: #cccccc" transform="translate(250.267775 44.916576)scale(0.1 -0.1)">
     <use xlink:href="#DejaVuSans-6e"/>
     <use xlink:href="#DejaVuSans-61" x="63.378906"/>
     <use xlink:href="#DejaVuSans-6e" x="124.658203"/>
    </g>
   </g>
   <g id="text_42">
    <!-- 1.1% -->
    <g style="fill: #ffffff" transform="translate(231.52063 105.003481)scale(0.1 -0.1)">
     <use xlink:href="#DejaVuSans-31"/>
     <use xlink:href="#DejaVuSans-2e" x="63.623047"/>
     <use xlink:href="#DejaVuSans-31" x="95.410156"/>
     <use xlink:href="#DejaVuSans-25" x="159.033203"/>
    </g>
   </g>
   <g id="text_43">
    <!-- nan -->
    <g style="fill: #cccccc" transform="translate(241.40868 44.323529)scale(0.1 -0.1)">
     <use xlink:href="#DejaVuSans-6e"/>
     <use xlink:href="#DejaVuSans-61" x="63.378906"/>
     <use xlink:href="#DejaVuSans-6e" x="124.658203"/>
    </g>
   </g>
   <g id="text_44">
    <!-- 1.1% -->
    <g style="fill: #ffffff" transform="translate(226.688397 104.680001)scale(0.1 -0.1)">
     <use xlink:href="#DejaVuSans-31"/>
     <use xlink:href="#DejaVuSans-2e" x="63.623047"/>
     <use xlink:href="#DejaVuSans-31" x="95.410156"/>
     <use xlink:href="#DejaVuSans-25" x="159.033203"/>
    </g>
   </g>
  </g>
 </g>
 <defs>
  <clipPath id="p235899aa2c">
   <rect x="57.6" y="41.472" width="357.12" height="266.112"/>
  </clipPath>
 </defs>
</svg>
