<?xml version="1.0" encoding="utf-8" standalone="no"?>
<!DOCTYPE svg PUBLIC "-//W3C//DTD SVG 1.1//EN"
  "http://www.w3.org/Graphics/SVG/1.1/DTD/svg11.dtd">
<svg xmlns:xlink="http://www.w3.org/1999/xlink" width="460.8pt" height="345.6pt" viewBox="0 0 460.8 345.6" xmlns="http://www.w3.org/2000/svg" version="1.1">
 <metadata>
  <rdf:RDF xmlns:dc="http://purl.org/dc/elements/1.1/" xmlns:cc="http://creativecommons.org/ns#" xmlns:rdf="http://www.w3.org/1999/02/22-rdf-syntax-ns#">
   <cc:Work>
    <dc:type rdf:resource="http://purl.org/dc/dcmitype/StillImage"/>
    <dc:date>2023-03-04T23:30:24.308476</dc:date>
    <dc:format>image/svg+xml</dc:format>
    <dc:creator>
     <cc:Agent>
      <dc:title>Matplotlib v3.5.1, https://matplotlib.org/</dc:title>
     </cc:Agent>
    </dc:creator>
   </cc:Work>
  </rdf:RDF>
 </metadata>
 <defs>
  <style type="text/css">*{stroke-linejoin: round; stroke-linecap: butt}</style>
 </defs>
 <g id="figure_1">
  <g id="patch_1">
   <path d="M 0 345.6 
L 460.8 345.6 
L 460.8 0 
L 0 0 
z
" style="fill: #0f0e21"/>
  </g>
  <g id="axes_1">
   <g id="patch_2">
    <path d="M 236.57684 53.568 
C 205.283216 53.568 175.183741 65.73562 152.681242 87.482537 
C 130.178742 109.229455 116.990586 138.895966 115.922188 170.171346 
C 114.853789 201.446727 125.986686 231.94407 146.952665 255.175915 
C 167.918644 278.40776 197.117603 292.601074 228.338274 294.736626 
L 236.57684 174.293032 
L 236.57684 53.568 
z
" style="fill: #1f77b4"/>
   </g>
   <g id="patch_3">
    <path d="M 228.338274 294.736626 
C 239.322971 295.488 250.359003 294.733115 261.139076 292.492989 
C 271.919149 290.252864 282.342269 286.548486 292.118209 281.483002 
L 236.57684 174.293032 
L 228.338274 294.736626 
z
" style="fill: #ff7f0e"/>
   </g>
   <g id="patch_4">
    <path d="M 292.118209 281.483002 
C 308.044322 273.230755 321.932896 261.531886 332.771163 247.239488 
C 343.60943 232.947091 351.12738 216.417225 354.776798 198.855266 
L 236.57684 174.293032 
L 292.118209 281.483002 
z
" style="fill: #2ca02c"/>
   </g>
   <g id="patch_5">
    <path d="M 354.776798 198.855266 
C 356.175554 192.124079 356.996772 185.285694 357.231492 178.414719 
C 357.466211 171.543744 357.113576 164.665259 356.177432 157.85431 
L 236.57684 174.293032 
L 354.776798 198.855266 
z
" style="fill: #d62728"/>
   </g>
   <g id="patch_6">
    <path d="M 356.177432 157.85431 
C 355.615964 153.769327 354.84558 149.71579 353.869308 145.709641 
C 352.893036 141.703492 351.712159 137.74999 350.33132 133.864681 
L 236.57684 174.293032 
L 356.177432 157.85431 
z
" style="fill: #9467bd"/>
   </g>
   <g id="patch_7">
    <path d="M 350.33132 133.864681 
C 349.410873 131.27479 348.402246 128.717089 347.307204 126.196049 
C 346.212162 123.675009 345.031343 121.192101 343.766812 118.751667 
L 236.57684 174.293032 
L 350.33132 133.864681 
z
" style="fill: #8c564b"/>
   </g>
   <g id="patch_8">
    <path d="M 343.766812 118.751667 
C 342.50228 116.311232 341.154774 113.914694 339.72665 111.566244 
C 338.298526 109.217793 336.790616 106.918799 335.205557 104.673282 
L 236.57684 174.293032 
L 343.766812 118.751667 
z
" style="fill: #e377c2"/>
   </g>
   <g id="patch_9">
    <path d="M 335.205557 104.673282 
C 334.413085 103.550606 333.601502 102.441541 332.771163 101.346575 
C 331.940823 100.251609 331.091849 99.1709 330.22461 98.10492 
L 236.57684 174.293032 
L 335.205557 104.673282 
z
" style="fill: #7f7f7f"/>
   </g>
   <g id="patch_10">
    <path d="M 330.22461 98.10492 
C 329.357372 97.038941 328.471996 95.987847 327.568869 94.952097 
C 326.665742 93.916348 325.744997 92.896094 324.807035 91.891782 
L 236.57684 174.293032 
L 330.22461 98.10492 
z
" style="fill: #bcbd22"/>
   </g>
   <g id="patch_11">
    <path d="M 324.807035 91.891782 
C 322.930975 89.883012 320.98686 87.938897 318.97809 86.062837 
C 316.96932 84.186777 314.897066 82.379865 312.764952 80.645262 
L 236.57684 174.293032 
L 324.807035 91.891782 
z
" style="fill: #17becf"/>
   </g>
   <g id="patch_12">
    <path d="M 312.764952 80.645262 
C 311.698973 79.778023 310.618264 78.929049 309.523297 78.098709 
C 308.428331 77.26837 307.319267 76.456787 306.19659 75.664316 
L 236.57684 174.293032 
L 312.764952 80.645262 
z
" style="fill: #1f77b4"/>
   </g>
   <g id="patch_13">
    <path d="M 306.19659 75.664316 
C 305.073913 74.871844 303.937787 74.098599 302.788709 73.344918 
C 301.639631 72.591238 300.477768 71.857232 299.303628 71.143222 
L 236.57684 174.293032 
L 306.19659 75.664316 
z
" style="fill: #ff7f0e"/>
   </g>
   <g id="patch_14">
    <path d="M 299.303628 71.143222 
C 298.129489 70.429212 296.943243 69.735301 295.745411 69.061794 
C 294.547579 68.388286 293.338334 67.73528 292.118206 67.10306 
L 236.57684 174.293032 
L 299.303628 71.143222 
z
" style="fill: #2ca02c"/>
   </g>
   <g id="patch_15">
    <path d="M 292.118206 67.10306 
C 290.898077 66.470841 289.667243 65.8595 288.426242 65.269306 
C 287.18524 64.679111 285.934252 64.110149 284.673824 63.562668 
L 236.57684 174.293032 
L 292.118206 67.10306 
z
" style="fill: #d62728"/>
   </g>
   <g id="patch_16">
    <path d="M 284.673824 63.562668 
C 283.413395 63.015187 282.143711 62.489267 280.865326 61.985137 
C 279.586942 61.481007 278.300042 60.998742 277.005191 60.538552 
L 236.57684 174.293032 
L 284.673824 63.562668 
z
" style="fill: #9467bd"/>
   </g>
   <g id="patch_17">
    <path d="M 277.005191 60.538552 
C 275.71034 60.078362 274.407726 59.640314 273.097918 59.224599 
C 271.78811 58.808885 270.4713 58.415565 269.148063 58.044811 
L 236.57684 174.293032 
L 277.005191 60.538552 
z
" style="fill: #8c564b"/>
   </g>
   <g id="patch_18">
    <path d="M 269.148063 58.044811 
C 267.824826 57.674058 266.495355 57.325925 265.160231 57.000564 
C 263.825107 56.675203 262.484526 56.372662 261.139072 56.093074 
L 236.57684 174.293032 
L 269.148063 58.044811 
z
" style="fill: #e377c2"/>
   </g>
   <g id="patch_19">
    <path d="M 261.139072 56.093074 
C 259.793619 55.813486 258.44349 55.55689 257.089275 55.3234 
C 255.735061 55.08991 254.376958 54.879559 253.015562 54.692439 
L 236.57684 174.293032 
L 261.139072 56.093074 
z
" style="fill: #7f7f7f"/>
   </g>
   <g id="patch_20">
    <path d="M 253.015562 54.692439 
C 251.654165 54.50532 250.289673 54.341459 248.922681 54.200928 
C 247.55569 54.060397 246.186398 53.943216 244.815406 53.849438 
L 236.57684 174.293032 
L 253.015562 54.692439 
z
" style="fill: #bcbd22"/>
   </g>
   <g id="patch_21">
    <path d="M 244.815406 53.849438 
C 243.444413 53.755659 242.07192 53.685297 240.698525 53.63838 
C 239.32513 53.591463 237.951034 53.568 236.576838 53.568 
L 236.57684 174.293032 
L 244.815406 53.849438 
z
" style="fill: #17becf"/>
   </g>
   <g id="patch_22">
    <path d="M 236.57684 210.510542 
C 246.181835 210.510542 255.394729 206.694436 262.186486 199.902679 
C 268.978244 193.110921 272.794349 183.898028 272.794349 174.293032 
C 272.794349 164.688036 268.978244 155.475143 262.186486 148.683385 
C 255.394729 141.891628 246.181835 138.075522 236.57684 138.075522 
C 226.971844 138.075522 217.758951 141.891628 210.967193 148.683385 
C 204.175435 155.475143 200.35933 164.688036 200.35933 174.293032 
C 200.35933 183.898028 204.175435 193.110921 210.967193 199.902679 
C 217.758951 206.694436 226.971844 210.510542 236.57684 210.510542 
z
" clip-path="url(#pf61676cc66)" style="fill: #0f0e21; stroke: #0f0e21; stroke-linejoin: miter"/>
   </g>
   <g id="matplotlib.axis_1"/>
   <g id="matplotlib.axis_2"/>
   <g id="text_1">
    <!-- 800.0 -->
    <g style="fill: #cccccc" transform="translate(75.228597 172.518553)scale(0.1 -0.1)">
     <defs>
      <path id="DejaVuSans-38" d="M 2034 2216 
Q 1584 2216 1326 1975 
Q 1069 1734 1069 1313 
Q 1069 891 1326 650 
Q 1584 409 2034 409 
Q 2484 409 2743 651 
Q 3003 894 3003 1313 
Q 3003 1734 2745 1975 
Q 2488 2216 2034 2216 
z
M 1403 2484 
Q 997 2584 770 2862 
Q 544 3141 544 3541 
Q 544 4100 942 4425 
Q 1341 4750 2034 4750 
Q 2731 4750 3128 4425 
Q 3525 4100 3525 3541 
Q 3525 3141 3298 2862 
Q 3072 2584 2669 2484 
Q 3125 2378 3379 2068 
Q 3634 1759 3634 1313 
Q 3634 634 3220 271 
Q 2806 -91 2034 -91 
Q 1263 -91 848 271 
Q 434 634 434 1313 
Q 434 1759 690 2068 
Q 947 2378 1403 2484 
z
M 1172 3481 
Q 1172 3119 1398 2916 
Q 1625 2713 2034 2713 
Q 2441 2713 2670 2916 
Q 2900 3119 2900 3481 
Q 2900 3844 2670 4047 
Q 2441 4250 2034 4250 
Q 1625 4250 1398 4047 
Q 1172 3844 1172 3481 
z
" transform="scale(0.015625)"/>
      <path id="DejaVuSans-30" d="M 2034 4250 
Q 1547 4250 1301 3770 
Q 1056 3291 1056 2328 
Q 1056 1369 1301 889 
Q 1547 409 2034 409 
Q 2525 409 2770 889 
Q 3016 1369 3016 2328 
Q 3016 3291 2770 3770 
Q 2525 4250 2034 4250 
z
M 2034 4750 
Q 2819 4750 3233 4129 
Q 3647 3509 3647 2328 
Q 3647 1150 3233 529 
Q 2819 -91 2034 -91 
Q 1250 -91 836 529 
Q 422 1150 422 2328 
Q 422 3509 836 4129 
Q 1250 4750 2034 4750 
z
" transform="scale(0.015625)"/>
      <path id="DejaVuSans-2e" d="M 684 794 
L 1344 794 
L 1344 0 
L 684 0 
L 684 794 
z
" transform="scale(0.015625)"/>
     </defs>
     <use xlink:href="#DejaVuSans-38"/>
     <use xlink:href="#DejaVuSans-30" x="63.623047"/>
     <use xlink:href="#DejaVuSans-30" x="127.246094"/>
     <use xlink:href="#DejaVuSans-2e" x="190.869141"/>
     <use xlink:href="#DejaVuSans-30" x="222.65625"/>
    </g>
   </g>
   <g id="text_2">
    <!-- 48.9% -->
    <g style="fill: #ffffff" transform="translate(148.300455 174.579396)scale(0.1 -0.1)">
     <defs>
      <path id="DejaVuSans-34" d="M 2419 4116 
L 825 1625 
L 2419 1625 
L 2419 4116 
z
M 2253 4666 
L 3047 4666 
L 3047 1625 
L 3713 1625 
L 3713 1100 
L 3047 1100 
L 3047 0 
L 2419 0 
L 2419 1100 
L 313 1100 
L 313 1709 
L 2253 4666 
z
" transform="scale(0.015625)"/>
      <path id="DejaVuSans-39" d="M 703 97 
L 703 672 
Q 941 559 1184 500 
Q 1428 441 1663 441 
Q 2288 441 2617 861 
Q 2947 1281 2994 2138 
Q 2813 1869 2534 1725 
Q 2256 1581 1919 1581 
Q 1219 1581 811 2004 
Q 403 2428 403 3163 
Q 403 3881 828 4315 
Q 1253 4750 1959 4750 
Q 2769 4750 3195 4129 
Q 3622 3509 3622 2328 
Q 3622 1225 3098 567 
Q 2575 -91 1691 -91 
Q 1453 -91 1209 -44 
Q 966 3 703 97 
z
M 1959 2075 
Q 2384 2075 2632 2365 
Q 2881 2656 2881 3163 
Q 2881 3666 2632 3958 
Q 2384 4250 1959 4250 
Q 1534 4250 1286 3958 
Q 1038 3666 1038 3163 
Q 1038 2656 1286 2365 
Q 1534 2075 1959 2075 
z
" transform="scale(0.015625)"/>
      <path id="DejaVuSans-25" d="M 4653 2053 
Q 4381 2053 4226 1822 
Q 4072 1591 4072 1178 
Q 4072 772 4226 539 
Q 4381 306 4653 306 
Q 4919 306 5073 539 
Q 5228 772 5228 1178 
Q 5228 1588 5073 1820 
Q 4919 2053 4653 2053 
z
M 4653 2450 
Q 5147 2450 5437 2106 
Q 5728 1763 5728 1178 
Q 5728 594 5436 251 
Q 5144 -91 4653 -91 
Q 4153 -91 3862 251 
Q 3572 594 3572 1178 
Q 3572 1766 3864 2108 
Q 4156 2450 4653 2450 
z
M 1428 4353 
Q 1159 4353 1004 4120 
Q 850 3888 850 3481 
Q 850 3069 1003 2837 
Q 1156 2606 1428 2606 
Q 1700 2606 1854 2837 
Q 2009 3069 2009 3481 
Q 2009 3884 1853 4118 
Q 1697 4353 1428 4353 
z
M 4250 4750 
L 4750 4750 
L 1831 -91 
L 1331 -91 
L 4250 4750 
z
M 1428 4750 
Q 1922 4750 2215 4408 
Q 2509 4066 2509 3481 
Q 2509 2891 2217 2550 
Q 1925 2209 1428 2209 
Q 931 2209 642 2551 
Q 353 2894 353 3481 
Q 353 4063 643 4406 
Q 934 4750 1428 4750 
z
" transform="scale(0.015625)"/>
     </defs>
     <use xlink:href="#DejaVuSans-34"/>
     <use xlink:href="#DejaVuSans-38" x="63.623047"/>
     <use xlink:href="#DejaVuSans-2e" x="127.246094"/>
     <use xlink:href="#DejaVuSans-39" x="159.033203"/>
     <use xlink:href="#DejaVuSans-25" x="222.65625"/>
    </g>
   </g>
   <g id="text_3">
    <!-- 900.0 -->
    <g style="fill: #cccccc" transform="translate(263.595299 307.07236)scale(0.1 -0.1)">
     <use xlink:href="#DejaVuSans-39"/>
     <use xlink:href="#DejaVuSans-30" x="63.623047"/>
     <use xlink:href="#DejaVuSans-30" x="127.246094"/>
     <use xlink:href="#DejaVuSans-2e" x="190.869141"/>
     <use xlink:href="#DejaVuSans-30" x="222.65625"/>
    </g>
   </g>
   <g id="text_4">
    <!-- 8.7% -->
    <g style="fill: #ffffff" transform="translate(238.611838 247.972381)scale(0.1 -0.1)">
     <defs>
      <path id="DejaVuSans-37" d="M 525 4666 
L 3525 4666 
L 3525 4397 
L 1831 0 
L 1172 0 
L 2766 4134 
L 525 4134 
L 525 4666 
z
" transform="scale(0.015625)"/>
     </defs>
     <use xlink:href="#DejaVuSans-38"/>
     <use xlink:href="#DejaVuSans-2e" x="63.623047"/>
     <use xlink:href="#DejaVuSans-37" x="95.410156"/>
     <use xlink:href="#DejaVuSans-25" x="159.033203"/>
    </g>
   </g>
   <g id="text_5">
    <!-- 1000.0 -->
    <g style="fill: #cccccc" transform="translate(342.390596 257.293509)scale(0.1 -0.1)">
     <defs>
      <path id="DejaVuSans-31" d="M 794 531 
L 1825 531 
L 1825 4091 
L 703 3866 
L 703 4441 
L 1819 4666 
L 2450 4666 
L 2450 531 
L 3481 531 
L 3481 0 
L 794 0 
L 794 531 
z
" transform="scale(0.015625)"/>
     </defs>
     <use xlink:href="#DejaVuSans-31"/>
     <use xlink:href="#DejaVuSans-30" x="63.623047"/>
     <use xlink:href="#DejaVuSans-30" x="127.246094"/>
     <use xlink:href="#DejaVuSans-30" x="190.869141"/>
     <use xlink:href="#DejaVuSans-2e" x="254.492188"/>
     <use xlink:href="#DejaVuSans-30" x="286.279297"/>
    </g>
   </g>
   <g id="text_6">
    <!-- 14.1% -->
    <g style="fill: #ffffff" transform="translate(278.40984 220.820281)scale(0.1 -0.1)">
     <use xlink:href="#DejaVuSans-31"/>
     <use xlink:href="#DejaVuSans-34" x="63.623047"/>
     <use xlink:href="#DejaVuSans-2e" x="127.246094"/>
     <use xlink:href="#DejaVuSans-31" x="159.033203"/>
     <use xlink:href="#DejaVuSans-25" x="222.65625"/>
    </g>
   </g>
   <g id="text_7">
    <!-- 1100.0 -->
    <g style="fill: #cccccc" transform="translate(369.296957 181.586263)scale(0.1 -0.1)">
     <use xlink:href="#DejaVuSans-31"/>
     <use xlink:href="#DejaVuSans-31" x="63.623047"/>
     <use xlink:href="#DejaVuSans-30" x="127.246094"/>
     <use xlink:href="#DejaVuSans-30" x="190.869141"/>
     <use xlink:href="#DejaVuSans-2e" x="254.492188"/>
     <use xlink:href="#DejaVuSans-30" x="286.279297"/>
    </g>
   </g>
   <g id="text_8">
    <!-- 5.4% -->
    <g style="fill: #ffffff" transform="translate(296.267287 179.525419)scale(0.1 -0.1)">
     <defs>
      <path id="DejaVuSans-35" d="M 691 4666 
L 3169 4666 
L 3169 4134 
L 1269 4134 
L 1269 2991 
Q 1406 3038 1543 3061 
Q 1681 3084 1819 3084 
Q 2600 3084 3056 2656 
Q 3513 2228 3513 1497 
Q 3513 744 3044 326 
Q 2575 -91 1722 -91 
Q 1428 -91 1123 -41 
Q 819 9 494 109 
L 494 744 
Q 775 591 1075 516 
Q 1375 441 1709 441 
Q 2250 441 2565 725 
Q 2881 1009 2881 1497 
Q 2881 1984 2565 2268 
Q 2250 2553 1709 2553 
Q 1456 2553 1204 2497 
Q 953 2441 691 2322 
L 691 4666 
z
" transform="scale(0.015625)"/>
     </defs>
     <use xlink:href="#DejaVuSans-35"/>
     <use xlink:href="#DejaVuSans-2e" x="63.623047"/>
     <use xlink:href="#DejaVuSans-34" x="95.410156"/>
     <use xlink:href="#DejaVuSans-25" x="159.033203"/>
    </g>
   </g>
   <g id="text_9">
    <!-- 1300.0 -->
    <g style="fill: #cccccc" transform="translate(365.598555 145.610677)scale(0.1 -0.1)">
     <defs>
      <path id="DejaVuSans-33" d="M 2597 2516 
Q 3050 2419 3304 2112 
Q 3559 1806 3559 1356 
Q 3559 666 3084 287 
Q 2609 -91 1734 -91 
Q 1441 -91 1130 -33 
Q 819 25 488 141 
L 488 750 
Q 750 597 1062 519 
Q 1375 441 1716 441 
Q 2309 441 2620 675 
Q 2931 909 2931 1356 
Q 2931 1769 2642 2001 
Q 2353 2234 1838 2234 
L 1294 2234 
L 1294 2753 
L 1863 2753 
Q 2328 2753 2575 2939 
Q 2822 3125 2822 3475 
Q 2822 3834 2567 4026 
Q 2313 4219 1838 4219 
Q 1578 4219 1281 4162 
Q 984 4106 628 3988 
L 628 4550 
Q 988 4650 1302 4700 
Q 1616 4750 1894 4750 
Q 2613 4750 3031 4423 
Q 3450 4097 3450 3541 
Q 3450 3153 3228 2886 
Q 3006 2619 2597 2516 
z
" transform="scale(0.015625)"/>
     </defs>
     <use xlink:href="#DejaVuSans-31"/>
     <use xlink:href="#DejaVuSans-33" x="63.623047"/>
     <use xlink:href="#DejaVuSans-30" x="127.246094"/>
     <use xlink:href="#DejaVuSans-30" x="190.869141"/>
     <use xlink:href="#DejaVuSans-2e" x="254.492188"/>
     <use xlink:href="#DejaVuSans-30" x="286.279297"/>
    </g>
   </g>
   <g id="text_10">
    <!-- 3.3% -->
    <g style="fill: #ffffff" transform="translate(294.249977 159.902372)scale(0.1 -0.1)">
     <use xlink:href="#DejaVuSans-33"/>
     <use xlink:href="#DejaVuSans-2e" x="63.623047"/>
     <use xlink:href="#DejaVuSans-33" x="95.410156"/>
     <use xlink:href="#DejaVuSans-25" x="159.033203"/>
    </g>
   </g>
   <g id="text_11">
    <!-- 1400.0 -->
    <g style="fill: #cccccc" transform="translate(358.38024 124.145725)scale(0.1 -0.1)">
     <use xlink:href="#DejaVuSans-31"/>
     <use xlink:href="#DejaVuSans-34" x="63.623047"/>
     <use xlink:href="#DejaVuSans-30" x="127.246094"/>
     <use xlink:href="#DejaVuSans-30" x="190.869141"/>
     <use xlink:href="#DejaVuSans-2e" x="254.492188"/>
     <use xlink:href="#DejaVuSans-30" x="286.279297"/>
    </g>
   </g>
   <g id="text_12">
    <!-- 2.2% -->
    <g style="fill: #ffffff" transform="translate(290.312714 148.194217)scale(0.1 -0.1)">
     <defs>
      <path id="DejaVuSans-32" d="M 1228 531 
L 3431 531 
L 3431 0 
L 469 0 
L 469 531 
Q 828 903 1448 1529 
Q 2069 2156 2228 2338 
Q 2531 2678 2651 2914 
Q 2772 3150 2772 3378 
Q 2772 3750 2511 3984 
Q 2250 4219 1831 4219 
Q 1534 4219 1204 4116 
Q 875 4013 500 3803 
L 500 4441 
Q 881 4594 1212 4672 
Q 1544 4750 1819 4750 
Q 2544 4750 2975 4387 
Q 3406 4025 3406 3419 
Q 3406 3131 3298 2873 
Q 3191 2616 2906 2266 
Q 2828 2175 2409 1742 
Q 1991 1309 1228 531 
z
" transform="scale(0.015625)"/>
     </defs>
     <use xlink:href="#DejaVuSans-32"/>
     <use xlink:href="#DejaVuSans-2e" x="63.623047"/>
     <use xlink:href="#DejaVuSans-32" x="95.410156"/>
     <use xlink:href="#DejaVuSans-25" x="159.033203"/>
    </g>
   </g>
   <g id="text_13">
    <!-- 1200.0 -->
    <g style="fill: #cccccc" transform="translate(350.041631 108.05294)scale(0.1 -0.1)">
     <use xlink:href="#DejaVuSans-31"/>
     <use xlink:href="#DejaVuSans-32" x="63.623047"/>
     <use xlink:href="#DejaVuSans-30" x="127.246094"/>
     <use xlink:href="#DejaVuSans-30" x="190.869141"/>
     <use xlink:href="#DejaVuSans-2e" x="254.492188"/>
     <use xlink:href="#DejaVuSans-30" x="286.279297"/>
    </g>
   </g>
   <g id="text_14">
    <!-- 2.2% -->
    <g style="fill: #ffffff" transform="translate(285.764382 139.416334)scale(0.1 -0.1)">
     <use xlink:href="#DejaVuSans-32"/>
     <use xlink:href="#DejaVuSans-2e" x="63.623047"/>
     <use xlink:href="#DejaVuSans-32" x="95.410156"/>
     <use xlink:href="#DejaVuSans-25" x="159.033203"/>
    </g>
   </g>
   <g id="text_15">
    <!-- 1600.0 -->
    <g style="fill: #cccccc" transform="translate(342.390595 96.811304)scale(0.1 -0.1)">
     <defs>
      <path id="DejaVuSans-36" d="M 2113 2584 
Q 1688 2584 1439 2293 
Q 1191 2003 1191 1497 
Q 1191 994 1439 701 
Q 1688 409 2113 409 
Q 2538 409 2786 701 
Q 3034 994 3034 1497 
Q 3034 2003 2786 2293 
Q 2538 2584 2113 2584 
z
M 3366 4563 
L 3366 3988 
Q 3128 4100 2886 4159 
Q 2644 4219 2406 4219 
Q 1781 4219 1451 3797 
Q 1122 3375 1075 2522 
Q 1259 2794 1537 2939 
Q 1816 3084 2150 3084 
Q 2853 3084 3261 2657 
Q 3669 2231 3669 1497 
Q 3669 778 3244 343 
Q 2819 -91 2113 -91 
Q 1303 -91 875 529 
Q 447 1150 447 2328 
Q 447 3434 972 4092 
Q 1497 4750 2381 4750 
Q 2619 4750 2861 4703 
Q 3103 4656 3366 4563 
z
" transform="scale(0.015625)"/>
     </defs>
     <use xlink:href="#DejaVuSans-31"/>
     <use xlink:href="#DejaVuSans-36" x="63.623047"/>
     <use xlink:href="#DejaVuSans-30" x="127.246094"/>
     <use xlink:href="#DejaVuSans-30" x="190.869141"/>
     <use xlink:href="#DejaVuSans-2e" x="254.492188"/>
     <use xlink:href="#DejaVuSans-30" x="286.279297"/>
    </g>
   </g>
   <g id="text_16">
    <!-- 1.1% -->
    <g style="fill: #ffffff" transform="translate(281.59109 133.284533)scale(0.1 -0.1)">
     <use xlink:href="#DejaVuSans-31"/>
     <use xlink:href="#DejaVuSans-2e" x="63.623047"/>
     <use xlink:href="#DejaVuSans-31" x="95.410156"/>
     <use xlink:href="#DejaVuSans-25" x="159.033203"/>
    </g>
   </g>
   <g id="text_17">
    <!-- 1500.0 -->
    <g style="fill: #cccccc" transform="translate(336.668072 89.777379)scale(0.1 -0.1)">
     <use xlink:href="#DejaVuSans-31"/>
     <use xlink:href="#DejaVuSans-35" x="63.623047"/>
     <use xlink:href="#DejaVuSans-30" x="127.246094"/>
     <use xlink:href="#DejaVuSans-30" x="190.869141"/>
     <use xlink:href="#DejaVuSans-2e" x="254.492188"/>
     <use xlink:href="#DejaVuSans-30" x="286.279297"/>
    </g>
   </g>
   <g id="text_18">
    <!-- 1.1% -->
    <g style="fill: #ffffff" transform="translate(278.469714 129.447846)scale(0.1 -0.1)">
     <use xlink:href="#DejaVuSans-31"/>
     <use xlink:href="#DejaVuSans-2e" x="63.623047"/>
     <use xlink:href="#DejaVuSans-31" x="95.410156"/>
     <use xlink:href="#DejaVuSans-25" x="159.033203"/>
    </g>
   </g>
   <g id="text_19">
    <!-- 1700.0 -->
    <g style="fill: #cccccc" transform="translate(327.218215 79.999193)scale(0.1 -0.1)">
     <use xlink:href="#DejaVuSans-31"/>
     <use xlink:href="#DejaVuSans-37" x="63.623047"/>
     <use xlink:href="#DejaVuSans-30" x="127.246094"/>
     <use xlink:href="#DejaVuSans-30" x="190.869141"/>
     <use xlink:href="#DejaVuSans-2e" x="254.492188"/>
     <use xlink:href="#DejaVuSans-30" x="286.279297"/>
    </g>
   </g>
   <g id="text_20">
    <!-- 2.2% -->
    <g style="fill: #ffffff" transform="translate(273.315246 124.11429)scale(0.1 -0.1)">
     <use xlink:href="#DejaVuSans-32"/>
     <use xlink:href="#DejaVuSans-2e" x="63.623047"/>
     <use xlink:href="#DejaVuSans-32" x="95.410156"/>
     <use xlink:href="#DejaVuSans-25" x="159.033203"/>
    </g>
   </g>
   <g id="text_21">
    <!-- nan -->
    <g style="fill: #cccccc" transform="translate(316.817943 71.238652)scale(0.1 -0.1)">
     <defs>
      <path id="DejaVuSans-6e" d="M 3513 2113 
L 3513 0 
L 2938 0 
L 2938 2094 
Q 2938 2591 2744 2837 
Q 2550 3084 2163 3084 
Q 1697 3084 1428 2787 
Q 1159 2491 1159 1978 
L 1159 0 
L 581 0 
L 581 3500 
L 1159 3500 
L 1159 2956 
Q 1366 3272 1645 3428 
Q 1925 3584 2291 3584 
Q 2894 3584 3203 3211 
Q 3513 2838 3513 2113 
z
" transform="scale(0.015625)"/>
      <path id="DejaVuSans-61" d="M 2194 1759 
Q 1497 1759 1228 1600 
Q 959 1441 959 1056 
Q 959 750 1161 570 
Q 1363 391 1709 391 
Q 2188 391 2477 730 
Q 2766 1069 2766 1631 
L 2766 1759 
L 2194 1759 
z
M 3341 1997 
L 3341 0 
L 2766 0 
L 2766 531 
Q 2569 213 2275 61 
Q 1981 -91 1556 -91 
Q 1019 -91 701 211 
Q 384 513 384 1019 
Q 384 1609 779 1909 
Q 1175 2209 1959 2209 
L 2766 2209 
L 2766 2266 
Q 2766 2663 2505 2880 
Q 2244 3097 1772 3097 
Q 1472 3097 1187 3025 
Q 903 2953 641 2809 
L 641 3341 
Q 956 3463 1253 3523 
Q 1550 3584 1831 3584 
Q 2591 3584 2966 3190 
Q 3341 2797 3341 1997 
z
" transform="scale(0.015625)"/>
     </defs>
     <use xlink:href="#DejaVuSans-6e"/>
     <use xlink:href="#DejaVuSans-61" x="63.378906"/>
     <use xlink:href="#DejaVuSans-6e" x="124.658203"/>
    </g>
   </g>
   <g id="text_22">
    <!-- 1.1% -->
    <g style="fill: #ffffff" transform="translate(267.64237 119.335814)scale(0.1 -0.1)">
     <use xlink:href="#DejaVuSans-31"/>
     <use xlink:href="#DejaVuSans-2e" x="63.623047"/>
     <use xlink:href="#DejaVuSans-31" x="95.410156"/>
     <use xlink:href="#DejaVuSans-25" x="159.033203"/>
    </g>
   </g>
   <g id="text_23">
    <!-- nan -->
    <g style="fill: #cccccc" transform="translate(309.409896 66.009482)scale(0.1 -0.1)">
     <use xlink:href="#DejaVuSans-6e"/>
     <use xlink:href="#DejaVuSans-61" x="63.378906"/>
     <use xlink:href="#DejaVuSans-6e" x="124.658203"/>
    </g>
   </g>
   <g id="text_24">
    <!-- 1.1% -->
    <g style="fill: #ffffff" transform="translate(263.601618 116.483539)scale(0.1 -0.1)">
     <use xlink:href="#DejaVuSans-31"/>
     <use xlink:href="#DejaVuSans-2e" x="63.623047"/>
     <use xlink:href="#DejaVuSans-31" x="95.410156"/>
     <use xlink:href="#DejaVuSans-25" x="159.033203"/>
    </g>
   </g>
   <g id="text_25">
    <!-- nan -->
    <g style="fill: #cccccc" transform="translate(301.662268 61.298045)scale(0.1 -0.1)">
     <use xlink:href="#DejaVuSans-6e"/>
     <use xlink:href="#DejaVuSans-61" x="63.378906"/>
     <use xlink:href="#DejaVuSans-6e" x="124.658203"/>
    </g>
   </g>
   <g id="text_26">
    <!-- 1.1% -->
    <g style="fill: #ffffff" transform="translate(259.375639 113.913664)scale(0.1 -0.1)">
     <use xlink:href="#DejaVuSans-31"/>
     <use xlink:href="#DejaVuSans-2e" x="63.623047"/>
     <use xlink:href="#DejaVuSans-31" x="95.410156"/>
     <use xlink:href="#DejaVuSans-25" x="159.033203"/>
    </g>
   </g>
   <g id="text_27">
    <!-- nan -->
    <g style="fill: #cccccc" transform="translate(293.611182 57.126308)scale(0.1 -0.1)">
     <use xlink:href="#DejaVuSans-6e"/>
     <use xlink:href="#DejaVuSans-61" x="63.378906"/>
     <use xlink:href="#DejaVuSans-6e" x="124.658203"/>
    </g>
   </g>
   <g id="text_28">
    <!-- 1.1% -->
    <g style="fill: #ffffff" transform="translate(254.984137 111.638171)scale(0.1 -0.1)">
     <use xlink:href="#DejaVuSans-31"/>
     <use xlink:href="#DejaVuSans-2e" x="63.623047"/>
     <use xlink:href="#DejaVuSans-31" x="95.410156"/>
     <use xlink:href="#DejaVuSans-25" x="159.033203"/>
    </g>
   </g>
   <g id="text_29">
    <!-- nan -->
    <g style="fill: #cccccc" transform="translate(285.294175 53.513722)scale(0.1 -0.1)">
     <use xlink:href="#DejaVuSans-6e"/>
     <use xlink:href="#DejaVuSans-61" x="63.378906"/>
     <use xlink:href="#DejaVuSans-6e" x="124.658203"/>
    </g>
   </g>
   <g id="text_30">
    <!-- 1.1% -->
    <g style="fill: #ffffff" transform="translate(250.447588 109.66767)scale(0.1 -0.1)">
     <use xlink:href="#DejaVuSans-31"/>
     <use xlink:href="#DejaVuSans-2e" x="63.623047"/>
     <use xlink:href="#DejaVuSans-31" x="95.410156"/>
     <use xlink:href="#DejaVuSans-25" x="159.033203"/>
    </g>
   </g>
   <g id="text_31">
    <!-- nan -->
    <g style="fill: #cccccc" transform="translate(276.750026 50.477131)scale(0.1 -0.1)">
     <use xlink:href="#DejaVuSans-6e"/>
     <use xlink:href="#DejaVuSans-61" x="63.378906"/>
     <use xlink:href="#DejaVuSans-6e" x="124.658203"/>
    </g>
   </g>
   <g id="text_32">
    <!-- 1.1% -->
    <g style="fill: #ffffff" transform="translate(245.787143 108.011347)scale(0.1 -0.1)">
     <use xlink:href="#DejaVuSans-31"/>
     <use xlink:href="#DejaVuSans-2e" x="63.623047"/>
     <use xlink:href="#DejaVuSans-31" x="95.410156"/>
     <use xlink:href="#DejaVuSans-25" x="159.033203"/>
    </g>
   </g>
   <g id="text_33">
    <!-- nan -->
    <g style="fill: #cccccc" transform="translate(268.01857 48.030692)scale(0.1 -0.1)">
     <use xlink:href="#DejaVuSans-6e"/>
     <use xlink:href="#DejaVuSans-61" x="63.378906"/>
     <use xlink:href="#DejaVuSans-6e" x="124.658203"/>
    </g>
   </g>
   <g id="text_34">
    <!-- 1.1% -->
    <g style="fill: #ffffff" transform="translate(241.024531 106.676926)scale(0.1 -0.1)">
     <use xlink:href="#DejaVuSans-31"/>
     <use xlink:href="#DejaVuSans-2e" x="63.623047"/>
     <use xlink:href="#DejaVuSans-31" x="95.410156"/>
     <use xlink:href="#DejaVuSans-25" x="159.033203"/>
    </g>
   </g>
   <g id="text_35">
    <!-- nan -->
    <g style="fill: #cccccc" transform="translate(259.140519 46.185812)scale(0.1 -0.1)">
     <use xlink:href="#DejaVuSans-6e"/>
     <use xlink:href="#DejaVuSans-61" x="63.378906"/>
     <use xlink:href="#DejaVuSans-6e" x="124.658203"/>
    </g>
   </g>
   <g id="text_36">
    <!-- 1.1% -->
    <g style="fill: #ffffff" transform="translate(236.181957 105.670628)scale(0.1 -0.1)">
     <use xlink:href="#DejaVuSans-31"/>
     <use xlink:href="#DejaVuSans-2e" x="63.623047"/>
     <use xlink:href="#DejaVuSans-31" x="95.410156"/>
     <use xlink:href="#DejaVuSans-25" x="159.033203"/>
    </g>
   </g>
   <g id="text_37">
    <!-- nan -->
    <g style="fill: #cccccc" transform="translate(250.157265 44.951092)scale(0.1 -0.1)">
     <use xlink:href="#DejaVuSans-6e"/>
     <use xlink:href="#DejaVuSans-61" x="63.378906"/>
     <use xlink:href="#DejaVuSans-6e" x="124.658203"/>
    </g>
   </g>
   <g id="text_38">
    <!-- 1.1% -->
    <g style="fill: #ffffff" transform="translate(231.282001 104.997144)scale(0.1 -0.1)">
     <use xlink:href="#DejaVuSans-31"/>
     <use xlink:href="#DejaVuSans-2e" x="63.623047"/>
     <use xlink:href="#DejaVuSans-31" x="95.410156"/>
     <use xlink:href="#DejaVuSans-25" x="159.033203"/>
    </g>
   </g>
   <g id="text_39">
    <!-- nan -->
    <g style="fill: #cccccc" transform="translate(241.110693 44.33229)scale(0.1 -0.1)">
     <use xlink:href="#DejaVuSans-6e"/>
     <use xlink:href="#DejaVuSans-61" x="63.378906"/>
     <use xlink:href="#DejaVuSans-6e" x="124.658203"/>
    </g>
   </g>
   <g id="text_40">
    <!-- 1.1% -->
    <g style="fill: #ffffff" transform="translate(226.347507 104.659616)scale(0.1 -0.1)">
     <use xlink:href="#DejaVuSans-31"/>
     <use xlink:href="#DejaVuSans-2e" x="63.623047"/>
     <use xlink:href="#DejaVuSans-31" x="95.410156"/>
     <use xlink:href="#DejaVuSans-25" x="159.033203"/>
    </g>
   </g>
  </g>
 </g>
 <defs>
  <clipPath id="pf61676cc66">
   <rect x="57.6" y="41.472" width="357.12" height="266.112"/>
  </clipPath>
 </defs>
</svg>
