<?xml version="1.0" encoding="utf-8" standalone="no"?>
<!DOCTYPE svg PUBLIC "-//W3C//DTD SVG 1.1//EN"
  "http://www.w3.org/Graphics/SVG/1.1/DTD/svg11.dtd">
<svg xmlns:xlink="http://www.w3.org/1999/xlink" width="460.8pt" height="345.6pt" viewBox="0 0 460.8 345.6" xmlns="http://www.w3.org/2000/svg" version="1.1">
 <metadata>
  <rdf:RDF xmlns:dc="http://purl.org/dc/elements/1.1/" xmlns:cc="http://creativecommons.org/ns#" xmlns:rdf="http://www.w3.org/1999/02/22-rdf-syntax-ns#">
   <cc:Work>
    <dc:type rdf:resource="http://purl.org/dc/dcmitype/StillImage"/>
    <dc:date>2023-01-12T20:50:26.887327</dc:date>
    <dc:format>image/svg+xml</dc:format>
    <dc:creator>
     <cc:Agent>
      <dc:title>Matplotlib v3.5.1, https://matplotlib.org/</dc:title>
     </cc:Agent>
    </dc:creator>
   </cc:Work>
  </rdf:RDF>
 </metadata>
 <defs>
  <style type="text/css">*{stroke-linejoin: round; stroke-linecap: butt}</style>
 </defs>
 <g id="figure_1">
  <g id="patch_1">
   <path d="M 0 345.6 
L 460.8 345.6 
L 460.8 0 
L 0 0 
z
" style="fill: #0f0e21"/>
  </g>
  <g id="axes_1">
   <g id="patch_2">
    <path d="M 236.164226 53.568 
C 218.058734 53.568 200.182315 57.634622 183.858524 65.466777 
C 167.534732 73.298932 153.176628 84.698433 141.847274 98.821272 
L 236.164226 174.482417 
L 236.164226 53.568 
z
" style="fill: #1f77b4"/>
   </g>
   <g id="patch_3">
    <path d="M 141.847274 98.821272 
C 136.753098 105.171521 132.313253 112.020045 128.595363 119.26253 
C 124.877473 126.505015 121.900511 134.104502 119.709821 141.94524 
L 236.164226 174.482417 
L 141.847274 98.821272 
z
" style="fill: #ff7f0e"/>
   </g>
   <g id="patch_4">
    <path d="M 119.709821 141.94524 
C 118.103944 147.692865 116.92578 153.551499 116.184992 159.473092 
C 115.444205 165.394685 115.142824 171.363003 115.283323 177.329098 
L 236.164226 174.482417 
L 119.709821 141.94524 
z
" style="fill: #2ca02c"/>
   </g>
   <g id="patch_5">
    <path d="M 115.283323 177.329098 
C 115.356741 180.446706 115.550739 183.560306 115.864883 186.662915 
C 116.179027 189.765523 116.613082 192.854818 117.166072 195.923868 
L 236.164226 174.482417 
L 115.283323 177.329098 
z
" style="fill: #d62728"/>
   </g>
   <g id="patch_6">
    <path d="M 117.166072 195.923868 
C 119.140478 206.881643 122.619002 217.514376 127.502919 227.520298 
C 132.386837 237.52622 138.629504 246.809767 146.053747 255.107462 
L 236.164226 174.482417 
L 117.166072 195.923868 
z
" style="fill: #9467bd"/>
   </g>
   <g id="patch_7">
    <path d="M 146.053747 255.107462 
C 147.952271 257.229345 149.925151 259.283508 151.968696 261.266109 
C 154.012241 263.248709 156.125177 265.15851 158.303552 266.99194 
L 236.164226 174.482417 
L 146.053747 255.107462 
z
" style="fill: #8c564b"/>
   </g>
   <g id="patch_8">
    <path d="M 158.303552 266.99194 
C 161.934847 270.048221 165.742948 272.888042 169.70808 275.496659 
C 173.673213 278.105276 177.788503 280.478165 182.032582 282.603005 
L 236.164226 174.482417 
L 158.303552 266.99194 
z
" style="fill: #e377c2"/>
   </g>
   <g id="patch_9">
    <path d="M 182.032582 282.603005 
C 183.97229 283.574139 185.93778 284.492899 187.926918 285.358287 
C 189.916057 286.223675 191.928123 287.035379 193.960931 287.792515 
L 236.164226 174.482417 
L 182.032582 282.603005 
z
" style="fill: #7f7f7f"/>
   </g>
   <g id="patch_10">
    <path d="M 193.960931 287.792515 
C 196.883282 288.880969 199.846647 289.855962 202.844379 290.715305 
C 205.842111 291.574648 208.871965 292.317699 211.927145 292.942792 
L 236.164226 174.482417 
L 193.960931 287.792515 
z
" style="fill: #bcbd22"/>
   </g>
   <g id="patch_11">
    <path d="M 211.927145 292.942792 
C 217.241842 294.030183 222.623699 294.758678 228.036225 295.123339 
C 233.448752 295.488 238.87969 295.488 244.292217 295.12334 
L 236.164226 174.482417 
L 211.927145 292.942792 
z
" style="fill: #17becf"/>
   </g>
   <g id="patch_12">
    <path d="M 244.292217 295.12334 
C 248.486294 294.84077 252.662784 294.339683 256.804671 293.622118 
C 260.946559 292.904554 265.048211 291.971489 269.092916 290.826724 
L 236.164226 174.482417 
L 244.292217 295.12334 
z
" style="fill: #1f77b4"/>
   </g>
   <g id="patch_13">
    <path d="M 269.092916 290.826724 
C 272.354517 289.9036 275.575858 288.84373 278.7484 287.649924 
C 281.920943 286.456117 285.041882 285.12943 288.102946 283.673377 
L 236.164226 174.482417 
L 269.092916 290.826724 
z
" style="fill: #ff7f0e"/>
   </g>
   <g id="patch_14">
    <path d="M 288.102946 283.673377 
C 291.041533 282.275583 293.922496 280.759732 296.738798 279.129527 
C 299.555099 277.499322 302.304445 275.756091 304.980117 273.904092 
L 236.164226 174.482417 
L 288.102946 283.673377 
z
" style="fill: #2ca02c"/>
   </g>
   <g id="patch_15">
    <path d="M 304.980117 273.904092 
C 310.445297 270.121303 315.589276 265.894318 320.359749 261.266115 
C 325.130223 256.637912 329.510969 251.624232 333.457444 246.276053 
L 236.164226 174.482417 
L 304.980117 273.904092 
z
" style="fill: #d62728"/>
   </g>
   <g id="patch_16">
    <path d="M 333.457444 246.276053 
C 336.033898 242.784497 338.420534 239.156778 340.60699 235.408647 
C 342.793446 231.660515 344.776555 227.797401 346.547707 223.836075 
L 236.164226 174.482417 
L 333.457444 246.276053 
z
" style="fill: #9467bd"/>
   </g>
   <g id="patch_17">
    <path d="M 346.547707 223.836075 
C 347.433123 221.85577 348.265087 219.851997 349.042698 217.826932 
C 349.820308 215.801867 350.543283 213.756242 351.210836 211.69228 
L 236.164226 174.482417 
L 346.547707 223.836075 
z
" style="fill: #8c564b"/>
   </g>
   <g id="patch_18">
    <path d="M 351.210836 211.69228 
C 352.170506 208.725143 353.015029 205.721991 353.742512 202.689561 
C 354.469995 199.65713 355.079893 196.597691 355.570838 193.518107 
L 236.164226 174.482417 
L 351.210836 211.69228 
z
" style="fill: #e377c2"/>
   </g>
   <g id="patch_19">
    <path d="M 355.570838 193.518107 
C 356.403503 188.294983 356.892565 183.022848 357.03487 177.735684 
C 357.177176 172.448519 356.972418 167.15771 356.421919 161.897358 
L 236.164226 174.482417 
L 355.570838 193.518107 
z
" style="fill: #7f7f7f"/>
   </g>
   <g id="patch_20">
    <path d="M 356.421919 161.897358 
C 355.899668 156.906946 355.067288 151.953877 353.929608 147.06689 
C 352.791928 142.179903 351.351152 137.368468 349.615641 132.6605 
L 236.164226 174.482417 
L 356.421919 161.897358 
z
" style="fill: #bcbd22"/>
   </g>
   <g id="patch_21">
    <path d="M 349.615641 132.6605 
C 341.063464 109.460785 325.59747 89.433269 305.31415 75.292779 
C 285.03083 61.15229 260.890057 53.568001 236.16423 53.568 
L 236.164226 174.482417 
L 349.615641 132.6605 
z
" style="fill: #17becf"/>
   </g>
   <g id="patch_22">
    <path d="M 236.164226 210.756743 
C 245.784289 210.756743 255.011635 206.934651 261.814047 200.132239 
C 268.616459 193.329827 272.438551 184.102481 272.438551 174.482417 
C 272.438551 164.862354 268.616459 155.635008 261.814047 148.832596 
C 255.011635 142.030184 245.784289 138.208092 236.164226 138.208092 
C 226.544162 138.208092 217.316817 142.030184 210.514405 148.832596 
C 203.711993 155.635008 199.889901 164.862354 199.889901 174.482417 
C 199.889901 184.102481 203.711993 193.329827 210.514405 200.132239 
C 217.316817 206.934651 226.544162 210.756743 236.164226 210.756743 
z
" clip-path="url(#p50f2c4c97a)" style="fill: #0f0e21; stroke: #0f0e21; stroke-linejoin: miter"/>
   </g>
   <g id="matplotlib.axis_1"/>
   <g id="matplotlib.axis_2"/>
   <g id="text_1">
    <!-- Array -->
    <g style="fill: #cccccc" transform="translate(151.693578 57.324588)scale(0.1 -0.1)">
     <defs>
      <path id="DejaVuSans-41" d="M 2188 4044 
L 1331 1722 
L 3047 1722 
L 2188 4044 
z
M 1831 4666 
L 2547 4666 
L 4325 0 
L 3669 0 
L 3244 1197 
L 1141 1197 
L 716 0 
L 50 0 
L 1831 4666 
z
" transform="scale(0.015625)"/>
      <path id="DejaVuSans-72" d="M 2631 2963 
Q 2534 3019 2420 3045 
Q 2306 3072 2169 3072 
Q 1681 3072 1420 2755 
Q 1159 2438 1159 1844 
L 1159 0 
L 581 0 
L 581 3500 
L 1159 3500 
L 1159 2956 
Q 1341 3275 1631 3429 
Q 1922 3584 2338 3584 
Q 2397 3584 2469 3576 
Q 2541 3569 2628 3553 
L 2631 2963 
z
" transform="scale(0.015625)"/>
      <path id="DejaVuSans-61" d="M 2194 1759 
Q 1497 1759 1228 1600 
Q 959 1441 959 1056 
Q 959 750 1161 570 
Q 1363 391 1709 391 
Q 2188 391 2477 730 
Q 2766 1069 2766 1631 
L 2766 1759 
L 2194 1759 
z
M 3341 1997 
L 3341 0 
L 2766 0 
L 2766 531 
Q 2569 213 2275 61 
Q 1981 -91 1556 -91 
Q 1019 -91 701 211 
Q 384 513 384 1019 
Q 384 1609 779 1909 
Q 1175 2209 1959 2209 
L 2766 2209 
L 2766 2266 
Q 2766 2663 2505 2880 
Q 2244 3097 1772 3097 
Q 1472 3097 1187 3025 
Q 903 2953 641 2809 
L 641 3341 
Q 956 3463 1253 3523 
Q 1550 3584 1831 3584 
Q 2591 3584 2966 3190 
Q 3341 2797 3341 1997 
z
" transform="scale(0.015625)"/>
      <path id="DejaVuSans-79" d="M 2059 -325 
Q 1816 -950 1584 -1140 
Q 1353 -1331 966 -1331 
L 506 -1331 
L 506 -850 
L 844 -850 
Q 1081 -850 1212 -737 
Q 1344 -625 1503 -206 
L 1606 56 
L 191 3500 
L 800 3500 
L 1894 763 
L 2988 3500 
L 3597 3500 
L 2059 -325 
z
" transform="scale(0.015625)"/>
     </defs>
     <use xlink:href="#DejaVuSans-41"/>
     <use xlink:href="#DejaVuSans-72" x="68.408203"/>
     <use xlink:href="#DejaVuSans-72" x="107.771484"/>
     <use xlink:href="#DejaVuSans-61" x="148.884766"/>
     <use xlink:href="#DejaVuSans-79" x="210.164062"/>
    </g>
   </g>
   <g id="text_2">
    <!-- 14.2% -->
    <g style="fill: #ffffff" transform="translate(188.897211 111.832408)scale(0.1 -0.1)">
     <defs>
      <path id="DejaVuSans-31" d="M 794 531 
L 1825 531 
L 1825 4091 
L 703 3866 
L 703 4441 
L 1819 4666 
L 2450 4666 
L 2450 531 
L 3481 531 
L 3481 0 
L 794 0 
L 794 531 
z
" transform="scale(0.015625)"/>
      <path id="DejaVuSans-34" d="M 2419 4116 
L 825 1625 
L 2419 1625 
L 2419 4116 
z
M 2253 4666 
L 3047 4666 
L 3047 1625 
L 3713 1625 
L 3713 1100 
L 3047 1100 
L 3047 0 
L 2419 0 
L 2419 1100 
L 313 1100 
L 313 1709 
L 2253 4666 
z
" transform="scale(0.015625)"/>
      <path id="DejaVuSans-2e" d="M 684 794 
L 1344 794 
L 1344 0 
L 684 0 
L 684 794 
z
" transform="scale(0.015625)"/>
      <path id="DejaVuSans-32" d="M 1228 531 
L 3431 531 
L 3431 0 
L 469 0 
L 469 531 
Q 828 903 1448 1529 
Q 2069 2156 2228 2338 
Q 2531 2678 2651 2914 
Q 2772 3150 2772 3378 
Q 2772 3750 2511 3984 
Q 2250 4219 1831 4219 
Q 1534 4219 1204 4116 
Q 875 4013 500 3803 
L 500 4441 
Q 881 4594 1212 4672 
Q 1544 4750 1819 4750 
Q 2544 4750 2975 4387 
Q 3406 4025 3406 3419 
Q 3406 3131 3298 2873 
Q 3191 2616 2906 2266 
Q 2828 2175 2409 1742 
Q 1991 1309 1228 531 
z
" transform="scale(0.015625)"/>
      <path id="DejaVuSans-25" d="M 4653 2053 
Q 4381 2053 4226 1822 
Q 4072 1591 4072 1178 
Q 4072 772 4226 539 
Q 4381 306 4653 306 
Q 4919 306 5073 539 
Q 5228 772 5228 1178 
Q 5228 1588 5073 1820 
Q 4919 2053 4653 2053 
z
M 4653 2450 
Q 5147 2450 5437 2106 
Q 5728 1763 5728 1178 
Q 5728 594 5436 251 
Q 5144 -91 4653 -91 
Q 4153 -91 3862 251 
Q 3572 594 3572 1178 
Q 3572 1766 3864 2108 
Q 4156 2450 4653 2450 
z
M 1428 4353 
Q 1159 4353 1004 4120 
Q 850 3888 850 3481 
Q 850 3069 1003 2837 
Q 1156 2606 1428 2606 
Q 1700 2606 1854 2837 
Q 2009 3069 2009 3481 
Q 2009 3884 1853 4118 
Q 1697 4353 1428 4353 
z
M 4250 4750 
L 4750 4750 
L 1831 -91 
L 1331 -91 
L 4250 4750 
z
M 1428 4750 
Q 1922 4750 2215 4408 
Q 2509 4066 2509 3481 
Q 2509 2891 2217 2550 
Q 1925 2209 1428 2209 
Q 931 2209 642 2551 
Q 353 2894 353 3481 
Q 353 4063 643 4406 
Q 934 4750 1428 4750 
z
" transform="scale(0.015625)"/>
     </defs>
     <use xlink:href="#DejaVuSans-31"/>
     <use xlink:href="#DejaVuSans-34" x="63.623047"/>
     <use xlink:href="#DejaVuSans-2e" x="127.246094"/>
     <use xlink:href="#DejaVuSans-32" x="159.033203"/>
     <use xlink:href="#DejaVuSans-25" x="222.65625"/>
    </g>
   </g>
   <g id="text_3">
    <!-- Hash Table -->
    <g style="fill: #cccccc" transform="translate(63.599414 116.499916)scale(0.1 -0.1)">
     <defs>
      <path id="DejaVuSans-48" d="M 628 4666 
L 1259 4666 
L 1259 2753 
L 3553 2753 
L 3553 4666 
L 4184 4666 
L 4184 0 
L 3553 0 
L 3553 2222 
L 1259 2222 
L 1259 0 
L 628 0 
L 628 4666 
z
" transform="scale(0.015625)"/>
      <path id="DejaVuSans-73" d="M 2834 3397 
L 2834 2853 
Q 2591 2978 2328 3040 
Q 2066 3103 1784 3103 
Q 1356 3103 1142 2972 
Q 928 2841 928 2578 
Q 928 2378 1081 2264 
Q 1234 2150 1697 2047 
L 1894 2003 
Q 2506 1872 2764 1633 
Q 3022 1394 3022 966 
Q 3022 478 2636 193 
Q 2250 -91 1575 -91 
Q 1294 -91 989 -36 
Q 684 19 347 128 
L 347 722 
Q 666 556 975 473 
Q 1284 391 1588 391 
Q 1994 391 2212 530 
Q 2431 669 2431 922 
Q 2431 1156 2273 1281 
Q 2116 1406 1581 1522 
L 1381 1569 
Q 847 1681 609 1914 
Q 372 2147 372 2553 
Q 372 3047 722 3315 
Q 1072 3584 1716 3584 
Q 2034 3584 2315 3537 
Q 2597 3491 2834 3397 
z
" transform="scale(0.015625)"/>
      <path id="DejaVuSans-68" d="M 3513 2113 
L 3513 0 
L 2938 0 
L 2938 2094 
Q 2938 2591 2744 2837 
Q 2550 3084 2163 3084 
Q 1697 3084 1428 2787 
Q 1159 2491 1159 1978 
L 1159 0 
L 581 0 
L 581 4863 
L 1159 4863 
L 1159 2956 
Q 1366 3272 1645 3428 
Q 1925 3584 2291 3584 
Q 2894 3584 3203 3211 
Q 3513 2838 3513 2113 
z
" transform="scale(0.015625)"/>
      <path id="DejaVuSans-20" transform="scale(0.015625)"/>
      <path id="DejaVuSans-54" d="M -19 4666 
L 3928 4666 
L 3928 4134 
L 2272 4134 
L 2272 0 
L 1638 0 
L 1638 4134 
L -19 4134 
L -19 4666 
z
" transform="scale(0.015625)"/>
      <path id="DejaVuSans-62" d="M 3116 1747 
Q 3116 2381 2855 2742 
Q 2594 3103 2138 3103 
Q 1681 3103 1420 2742 
Q 1159 2381 1159 1747 
Q 1159 1113 1420 752 
Q 1681 391 2138 391 
Q 2594 391 2855 752 
Q 3116 1113 3116 1747 
z
M 1159 2969 
Q 1341 3281 1617 3432 
Q 1894 3584 2278 3584 
Q 2916 3584 3314 3078 
Q 3713 2572 3713 1747 
Q 3713 922 3314 415 
Q 2916 -91 2278 -91 
Q 1894 -91 1617 61 
Q 1341 213 1159 525 
L 1159 0 
L 581 0 
L 581 4863 
L 1159 4863 
L 1159 2969 
z
" transform="scale(0.015625)"/>
      <path id="DejaVuSans-6c" d="M 603 4863 
L 1178 4863 
L 1178 0 
L 603 0 
L 603 4863 
z
" transform="scale(0.015625)"/>
      <path id="DejaVuSans-65" d="M 3597 1894 
L 3597 1613 
L 953 1613 
Q 991 1019 1311 708 
Q 1631 397 2203 397 
Q 2534 397 2845 478 
Q 3156 559 3463 722 
L 3463 178 
Q 3153 47 2828 -22 
Q 2503 -91 2169 -91 
Q 1331 -91 842 396 
Q 353 884 353 1716 
Q 353 2575 817 3079 
Q 1281 3584 2069 3584 
Q 2775 3584 3186 3129 
Q 3597 2675 3597 1894 
z
M 3022 2063 
Q 3016 2534 2758 2815 
Q 2500 3097 2075 3097 
Q 1594 3097 1305 2825 
Q 1016 2553 972 2059 
L 3022 2063 
z
" transform="scale(0.015625)"/>
     </defs>
     <use xlink:href="#DejaVuSans-48"/>
     <use xlink:href="#DejaVuSans-61" x="75.195312"/>
     <use xlink:href="#DejaVuSans-73" x="136.474609"/>
     <use xlink:href="#DejaVuSans-68" x="188.574219"/>
     <use xlink:href="#DejaVuSans-20" x="251.953125"/>
     <use xlink:href="#DejaVuSans-54" x="283.740234"/>
     <use xlink:href="#DejaVuSans-61" x="328.324219"/>
     <use xlink:href="#DejaVuSans-62" x="389.603516"/>
     <use xlink:href="#DejaVuSans-6c" x="453.080078"/>
     <use xlink:href="#DejaVuSans-65" x="480.863281"/>
    </g>
   </g>
   <g id="text_4">
    <!-- 6.4% -->
    <g style="fill: #ffffff" transform="translate(158.920564 144.10986)scale(0.1 -0.1)">
     <defs>
      <path id="DejaVuSans-36" d="M 2113 2584 
Q 1688 2584 1439 2293 
Q 1191 2003 1191 1497 
Q 1191 994 1439 701 
Q 1688 409 2113 409 
Q 2538 409 2786 701 
Q 3034 994 3034 1497 
Q 3034 2003 2786 2293 
Q 2538 2584 2113 2584 
z
M 3366 4563 
L 3366 3988 
Q 3128 4100 2886 4159 
Q 2644 4219 2406 4219 
Q 1781 4219 1451 3797 
Q 1122 3375 1075 2522 
Q 1259 2794 1537 2939 
Q 1816 3084 2150 3084 
Q 2853 3084 3261 2657 
Q 3669 2231 3669 1497 
Q 3669 778 3244 343 
Q 2819 -91 2113 -91 
Q 1303 -91 875 529 
Q 447 1150 447 2328 
Q 447 3434 972 4092 
Q 1497 4750 2381 4750 
Q 2619 4750 2861 4703 
Q 3103 4656 3366 4563 
z
" transform="scale(0.015625)"/>
     </defs>
     <use xlink:href="#DejaVuSans-36"/>
     <use xlink:href="#DejaVuSans-2e" x="63.623047"/>
     <use xlink:href="#DejaVuSans-34" x="95.410156"/>
     <use xlink:href="#DejaVuSans-25" x="159.033203"/>
    </g>
   </g>
   <g id="text_5">
    <!-- Math -->
    <g style="fill: #cccccc" transform="translate(79.173007 160.731534)scale(0.1 -0.1)">
     <defs>
      <path id="DejaVuSans-4d" d="M 628 4666 
L 1569 4666 
L 2759 1491 
L 3956 4666 
L 4897 4666 
L 4897 0 
L 4281 0 
L 4281 4097 
L 3078 897 
L 2444 897 
L 1241 4097 
L 1241 0 
L 628 0 
L 628 4666 
z
" transform="scale(0.015625)"/>
      <path id="DejaVuSans-74" d="M 1172 4494 
L 1172 3500 
L 2356 3500 
L 2356 3053 
L 1172 3053 
L 1172 1153 
Q 1172 725 1289 603 
Q 1406 481 1766 481 
L 2356 481 
L 2356 0 
L 1766 0 
Q 1100 0 847 248 
Q 594 497 594 1153 
L 594 3053 
L 172 3053 
L 172 3500 
L 594 3500 
L 594 4494 
L 1172 4494 
z
" transform="scale(0.015625)"/>
     </defs>
     <use xlink:href="#DejaVuSans-4d"/>
     <use xlink:href="#DejaVuSans-61" x="86.279297"/>
     <use xlink:href="#DejaVuSans-74" x="147.558594"/>
     <use xlink:href="#DejaVuSans-68" x="186.767578"/>
    </g>
   </g>
   <g id="text_6">
    <!-- 4.7% -->
    <g style="fill: #ffffff" transform="translate(151.474342 168.236197)scale(0.1 -0.1)">
     <defs>
      <path id="DejaVuSans-37" d="M 525 4666 
L 3525 4666 
L 3525 4397 
L 1831 0 
L 1172 0 
L 2766 4134 
L 525 4134 
L 525 4666 
z
" transform="scale(0.015625)"/>
     </defs>
     <use xlink:href="#DejaVuSans-34"/>
     <use xlink:href="#DejaVuSans-2e" x="63.623047"/>
     <use xlink:href="#DejaVuSans-37" x="95.410156"/>
     <use xlink:href="#DejaVuSans-25" x="159.033203"/>
    </g>
   </g>
   <g id="text_7">
    <!-- Linked List -->
    <g style="fill: #cccccc" transform="translate(50.559949 190.640339)scale(0.1 -0.1)">
     <defs>
      <path id="DejaVuSans-4c" d="M 628 4666 
L 1259 4666 
L 1259 531 
L 3531 531 
L 3531 0 
L 628 0 
L 628 4666 
z
" transform="scale(0.015625)"/>
      <path id="DejaVuSans-69" d="M 603 3500 
L 1178 3500 
L 1178 0 
L 603 0 
L 603 3500 
z
M 603 4863 
L 1178 4863 
L 1178 4134 
L 603 4134 
L 603 4863 
z
" transform="scale(0.015625)"/>
      <path id="DejaVuSans-6e" d="M 3513 2113 
L 3513 0 
L 2938 0 
L 2938 2094 
Q 2938 2591 2744 2837 
Q 2550 3084 2163 3084 
Q 1697 3084 1428 2787 
Q 1159 2491 1159 1978 
L 1159 0 
L 581 0 
L 581 3500 
L 1159 3500 
L 1159 2956 
Q 1366 3272 1645 3428 
Q 1925 3584 2291 3584 
Q 2894 3584 3203 3211 
Q 3513 2838 3513 2113 
z
" transform="scale(0.015625)"/>
      <path id="DejaVuSans-6b" d="M 581 4863 
L 1159 4863 
L 1159 1991 
L 2875 3500 
L 3609 3500 
L 1753 1863 
L 3688 0 
L 2938 0 
L 1159 1709 
L 1159 0 
L 581 0 
L 581 4863 
z
" transform="scale(0.015625)"/>
      <path id="DejaVuSans-64" d="M 2906 2969 
L 2906 4863 
L 3481 4863 
L 3481 0 
L 2906 0 
L 2906 525 
Q 2725 213 2448 61 
Q 2172 -91 1784 -91 
Q 1150 -91 751 415 
Q 353 922 353 1747 
Q 353 2572 751 3078 
Q 1150 3584 1784 3584 
Q 2172 3584 2448 3432 
Q 2725 3281 2906 2969 
z
M 947 1747 
Q 947 1113 1208 752 
Q 1469 391 1925 391 
Q 2381 391 2643 752 
Q 2906 1113 2906 1747 
Q 2906 2381 2643 2742 
Q 2381 3103 1925 3103 
Q 1469 3103 1208 2742 
Q 947 2381 947 1747 
z
" transform="scale(0.015625)"/>
     </defs>
     <use xlink:href="#DejaVuSans-4c"/>
     <use xlink:href="#DejaVuSans-69" x="55.712891"/>
     <use xlink:href="#DejaVuSans-6e" x="83.496094"/>
     <use xlink:href="#DejaVuSans-6b" x="146.875"/>
     <use xlink:href="#DejaVuSans-65" x="201.160156"/>
     <use xlink:href="#DejaVuSans-64" x="262.683594"/>
     <use xlink:href="#DejaVuSans-20" x="326.160156"/>
     <use xlink:href="#DejaVuSans-4c" x="357.947266"/>
     <use xlink:href="#DejaVuSans-69" x="413.660156"/>
     <use xlink:href="#DejaVuSans-73" x="441.443359"/>
     <use xlink:href="#DejaVuSans-74" x="493.542969"/>
    </g>
   </g>
   <g id="text_8">
    <!-- 2.5% -->
    <g style="fill: #ffffff" transform="translate(151.282277 184.550091)scale(0.1 -0.1)">
     <defs>
      <path id="DejaVuSans-35" d="M 691 4666 
L 3169 4666 
L 3169 4134 
L 1269 4134 
L 1269 2991 
Q 1406 3038 1543 3061 
Q 1681 3084 1819 3084 
Q 2600 3084 3056 2656 
Q 3513 2228 3513 1497 
Q 3513 744 3044 326 
Q 2575 -91 1722 -91 
Q 1428 -91 1123 -41 
Q 819 9 494 109 
L 494 744 
Q 775 591 1075 516 
Q 1375 441 1709 441 
Q 2250 441 2565 725 
Q 2881 1009 2881 1497 
Q 2881 1984 2565 2268 
Q 2250 2553 1709 2553 
Q 1456 2553 1204 2497 
Q 953 2441 691 2322 
L 691 4666 
z
" transform="scale(0.015625)"/>
     </defs>
     <use xlink:href="#DejaVuSans-32"/>
     <use xlink:href="#DejaVuSans-2e" x="63.623047"/>
     <use xlink:href="#DejaVuSans-35" x="95.410156"/>
     <use xlink:href="#DejaVuSans-25" x="159.033203"/>
    </g>
   </g>
   <g id="text_9">
    <!-- String -->
    <g style="fill: #cccccc" transform="translate(86.793039 235.583461)scale(0.1 -0.1)">
     <defs>
      <path id="DejaVuSans-53" d="M 3425 4513 
L 3425 3897 
Q 3066 4069 2747 4153 
Q 2428 4238 2131 4238 
Q 1616 4238 1336 4038 
Q 1056 3838 1056 3469 
Q 1056 3159 1242 3001 
Q 1428 2844 1947 2747 
L 2328 2669 
Q 3034 2534 3370 2195 
Q 3706 1856 3706 1288 
Q 3706 609 3251 259 
Q 2797 -91 1919 -91 
Q 1588 -91 1214 -16 
Q 841 59 441 206 
L 441 856 
Q 825 641 1194 531 
Q 1563 422 1919 422 
Q 2459 422 2753 634 
Q 3047 847 3047 1241 
Q 3047 1584 2836 1778 
Q 2625 1972 2144 2069 
L 1759 2144 
Q 1053 2284 737 2584 
Q 422 2884 422 3419 
Q 422 4038 858 4394 
Q 1294 4750 2059 4750 
Q 2388 4750 2728 4690 
Q 3069 4631 3425 4513 
z
" transform="scale(0.015625)"/>
      <path id="DejaVuSans-67" d="M 2906 1791 
Q 2906 2416 2648 2759 
Q 2391 3103 1925 3103 
Q 1463 3103 1205 2759 
Q 947 2416 947 1791 
Q 947 1169 1205 825 
Q 1463 481 1925 481 
Q 2391 481 2648 825 
Q 2906 1169 2906 1791 
z
M 3481 434 
Q 3481 -459 3084 -895 
Q 2688 -1331 1869 -1331 
Q 1566 -1331 1297 -1286 
Q 1028 -1241 775 -1147 
L 775 -588 
Q 1028 -725 1275 -790 
Q 1522 -856 1778 -856 
Q 2344 -856 2625 -561 
Q 2906 -266 2906 331 
L 2906 616 
Q 2728 306 2450 153 
Q 2172 0 1784 0 
Q 1141 0 747 490 
Q 353 981 353 1791 
Q 353 2603 747 3093 
Q 1141 3584 1784 3584 
Q 2172 3584 2450 3431 
Q 2728 3278 2906 2969 
L 2906 3500 
L 3481 3500 
L 3481 434 
z
" transform="scale(0.015625)"/>
     </defs>
     <use xlink:href="#DejaVuSans-53"/>
     <use xlink:href="#DejaVuSans-74" x="63.476562"/>
     <use xlink:href="#DejaVuSans-72" x="102.685547"/>
     <use xlink:href="#DejaVuSans-69" x="143.798828"/>
     <use xlink:href="#DejaVuSans-6e" x="171.582031"/>
     <use xlink:href="#DejaVuSans-67" x="234.960938"/>
    </g>
   </g>
   <g id="text_10">
    <!-- 8.8% -->
    <g style="fill: #ffffff" transform="translate(158.265098 209.064521)scale(0.1 -0.1)">
     <defs>
      <path id="DejaVuSans-38" d="M 2034 2216 
Q 1584 2216 1326 1975 
Q 1069 1734 1069 1313 
Q 1069 891 1326 650 
Q 1584 409 2034 409 
Q 2484 409 2743 651 
Q 3003 894 3003 1313 
Q 3003 1734 2745 1975 
Q 2488 2216 2034 2216 
z
M 1403 2484 
Q 997 2584 770 2862 
Q 544 3141 544 3541 
Q 544 4100 942 4425 
Q 1341 4750 2034 4750 
Q 2731 4750 3128 4425 
Q 3525 4100 3525 3541 
Q 3525 3141 3298 2862 
Q 3072 2584 2669 2484 
Q 3125 2378 3379 2068 
Q 3634 1759 3634 1313 
Q 3634 634 3220 271 
Q 2806 -91 2034 -91 
Q 1263 -91 848 271 
Q 434 634 434 1313 
Q 434 1759 690 2068 
Q 947 2378 1403 2484 
z
M 1172 3481 
Q 1172 3119 1398 2916 
Q 1625 2713 2034 2713 
Q 2441 2713 2670 2916 
Q 2900 3119 2900 3481 
Q 2900 3844 2670 4047 
Q 2441 4250 2034 4250 
Q 1625 4250 1398 4047 
Q 1172 3844 1172 3481 
z
" transform="scale(0.015625)"/>
     </defs>
     <use xlink:href="#DejaVuSans-38"/>
     <use xlink:href="#DejaVuSans-2e" x="63.623047"/>
     <use xlink:href="#DejaVuSans-38" x="95.410156"/>
     <use xlink:href="#DejaVuSans-25" x="159.033203"/>
    </g>
   </g>
   <g id="text_11">
    <!-- Binary Search -->
    <g style="fill: #cccccc" transform="translate(73.88508 272.703853)scale(0.1 -0.1)">
     <defs>
      <path id="DejaVuSans-42" d="M 1259 2228 
L 1259 519 
L 2272 519 
Q 2781 519 3026 730 
Q 3272 941 3272 1375 
Q 3272 1813 3026 2020 
Q 2781 2228 2272 2228 
L 1259 2228 
z
M 1259 4147 
L 1259 2741 
L 2194 2741 
Q 2656 2741 2882 2914 
Q 3109 3088 3109 3444 
Q 3109 3797 2882 3972 
Q 2656 4147 2194 4147 
L 1259 4147 
z
M 628 4666 
L 2241 4666 
Q 2963 4666 3353 4366 
Q 3744 4066 3744 3513 
Q 3744 3084 3544 2831 
Q 3344 2578 2956 2516 
Q 3422 2416 3680 2098 
Q 3938 1781 3938 1306 
Q 3938 681 3513 340 
Q 3088 0 2303 0 
L 628 0 
L 628 4666 
z
" transform="scale(0.015625)"/>
      <path id="DejaVuSans-63" d="M 3122 3366 
L 3122 2828 
Q 2878 2963 2633 3030 
Q 2388 3097 2138 3097 
Q 1578 3097 1268 2742 
Q 959 2388 959 1747 
Q 959 1106 1268 751 
Q 1578 397 2138 397 
Q 2388 397 2633 464 
Q 2878 531 3122 666 
L 3122 134 
Q 2881 22 2623 -34 
Q 2366 -91 2075 -91 
Q 1284 -91 818 406 
Q 353 903 353 1747 
Q 353 2603 823 3093 
Q 1294 3584 2113 3584 
Q 2378 3584 2631 3529 
Q 2884 3475 3122 3366 
z
" transform="scale(0.015625)"/>
     </defs>
     <use xlink:href="#DejaVuSans-42"/>
     <use xlink:href="#DejaVuSans-69" x="68.603516"/>
     <use xlink:href="#DejaVuSans-6e" x="96.386719"/>
     <use xlink:href="#DejaVuSans-61" x="159.765625"/>
     <use xlink:href="#DejaVuSans-72" x="221.044922"/>
     <use xlink:href="#DejaVuSans-79" x="262.158203"/>
     <use xlink:href="#DejaVuSans-20" x="321.337891"/>
     <use xlink:href="#DejaVuSans-53" x="353.125"/>
     <use xlink:href="#DejaVuSans-65" x="416.601562"/>
     <use xlink:href="#DejaVuSans-61" x="478.125"/>
     <use xlink:href="#DejaVuSans-72" x="539.404297"/>
     <use xlink:href="#DejaVuSans-63" x="578.267578"/>
     <use xlink:href="#DejaVuSans-68" x="633.248047"/>
    </g>
   </g>
   <g id="text_12">
    <!-- 2.2% -->
    <g style="fill: #ffffff" transform="translate(172.944564 229.312007)scale(0.1 -0.1)">
     <use xlink:href="#DejaVuSans-32"/>
     <use xlink:href="#DejaVuSans-2e" x="63.623047"/>
     <use xlink:href="#DejaVuSans-32" x="95.410156"/>
     <use xlink:href="#DejaVuSans-25" x="159.033203"/>
    </g>
   </g>
   <g id="text_13">
    <!-- Two Pointers -->
    <g style="fill: #cccccc" transform="translate(100.834341 288.357458)scale(0.1 -0.1)">
     <defs>
      <path id="DejaVuSans-77" d="M 269 3500 
L 844 3500 
L 1563 769 
L 2278 3500 
L 2956 3500 
L 3675 769 
L 4391 3500 
L 4966 3500 
L 4050 0 
L 3372 0 
L 2619 2869 
L 1863 0 
L 1184 0 
L 269 3500 
z
" transform="scale(0.015625)"/>
      <path id="DejaVuSans-6f" d="M 1959 3097 
Q 1497 3097 1228 2736 
Q 959 2375 959 1747 
Q 959 1119 1226 758 
Q 1494 397 1959 397 
Q 2419 397 2687 759 
Q 2956 1122 2956 1747 
Q 2956 2369 2687 2733 
Q 2419 3097 1959 3097 
z
M 1959 3584 
Q 2709 3584 3137 3096 
Q 3566 2609 3566 1747 
Q 3566 888 3137 398 
Q 2709 -91 1959 -91 
Q 1206 -91 779 398 
Q 353 888 353 1747 
Q 353 2609 779 3096 
Q 1206 3584 1959 3584 
z
" transform="scale(0.015625)"/>
      <path id="DejaVuSans-50" d="M 1259 4147 
L 1259 2394 
L 2053 2394 
Q 2494 2394 2734 2622 
Q 2975 2850 2975 3272 
Q 2975 3691 2734 3919 
Q 2494 4147 2053 4147 
L 1259 4147 
z
M 628 4666 
L 2053 4666 
Q 2838 4666 3239 4311 
Q 3641 3956 3641 3272 
Q 3641 2581 3239 2228 
Q 2838 1875 2053 1875 
L 1259 1875 
L 1259 0 
L 628 0 
L 628 4666 
z
" transform="scale(0.015625)"/>
     </defs>
     <use xlink:href="#DejaVuSans-54"/>
     <use xlink:href="#DejaVuSans-77" x="44.583984"/>
     <use xlink:href="#DejaVuSans-6f" x="126.371094"/>
     <use xlink:href="#DejaVuSans-20" x="187.552734"/>
     <use xlink:href="#DejaVuSans-50" x="219.339844"/>
     <use xlink:href="#DejaVuSans-6f" x="276.017578"/>
     <use xlink:href="#DejaVuSans-69" x="337.199219"/>
     <use xlink:href="#DejaVuSans-6e" x="364.982422"/>
     <use xlink:href="#DejaVuSans-74" x="428.361328"/>
     <use xlink:href="#DejaVuSans-65" x="467.570312"/>
     <use xlink:href="#DejaVuSans-72" x="529.09375"/>
     <use xlink:href="#DejaVuSans-73" x="570.207031"/>
    </g>
   </g>
   <g id="text_14">
    <!-- 3.7% -->
    <g style="fill: #ffffff" transform="translate(183.588195 237.850337)scale(0.1 -0.1)">
     <defs>
      <path id="DejaVuSans-33" d="M 2597 2516 
Q 3050 2419 3304 2112 
Q 3559 1806 3559 1356 
Q 3559 666 3084 287 
Q 2609 -91 1734 -91 
Q 1441 -91 1130 -33 
Q 819 25 488 141 
L 488 750 
Q 750 597 1062 519 
Q 1375 441 1716 441 
Q 2309 441 2620 675 
Q 2931 909 2931 1356 
Q 2931 1769 2642 2001 
Q 2353 2234 1838 2234 
L 1294 2234 
L 1294 2753 
L 1863 2753 
Q 2328 2753 2575 2939 
Q 2822 3125 2822 3475 
Q 2822 3834 2567 4026 
Q 2313 4219 1838 4219 
Q 1578 4219 1281 4162 
Q 984 4106 628 3988 
L 628 4550 
Q 988 4650 1302 4700 
Q 1616 4750 1894 4750 
Q 2613 4750 3031 4423 
Q 3450 4097 3450 3541 
Q 3450 3153 3228 2886 
Q 3006 2619 2597 2516 
z
" transform="scale(0.015625)"/>
     </defs>
     <use xlink:href="#DejaVuSans-33"/>
     <use xlink:href="#DejaVuSans-2e" x="63.623047"/>
     <use xlink:href="#DejaVuSans-37" x="95.410156"/>
     <use xlink:href="#DejaVuSans-25" x="159.033203"/>
    </g>
   </g>
   <g id="text_15">
    <!-- Backtracking -->
    <g style="fill: #cccccc" transform="translate(117.912563 299.205249)scale(0.1 -0.1)">
     <use xlink:href="#DejaVuSans-42"/>
     <use xlink:href="#DejaVuSans-61" x="68.603516"/>
     <use xlink:href="#DejaVuSans-63" x="129.882812"/>
     <use xlink:href="#DejaVuSans-6b" x="184.863281"/>
     <use xlink:href="#DejaVuSans-74" x="242.773438"/>
     <use xlink:href="#DejaVuSans-72" x="281.982422"/>
     <use xlink:href="#DejaVuSans-61" x="323.095703"/>
     <use xlink:href="#DejaVuSans-63" x="384.375"/>
     <use xlink:href="#DejaVuSans-6b" x="439.355469"/>
     <use xlink:href="#DejaVuSans-69" x="497.265625"/>
     <use xlink:href="#DejaVuSans-6e" x="525.048828"/>
     <use xlink:href="#DejaVuSans-67" x="588.427734"/>
    </g>
   </g>
   <g id="text_16">
    <!-- 1.7% -->
    <g style="fill: #ffffff" transform="translate(194.519498 243.767314)scale(0.1 -0.1)">
     <use xlink:href="#DejaVuSans-31"/>
     <use xlink:href="#DejaVuSans-2e" x="63.623047"/>
     <use xlink:href="#DejaVuSans-37" x="95.410156"/>
     <use xlink:href="#DejaVuSans-25" x="159.033203"/>
    </g>
   </g>
   <g id="text_17">
    <!-- Matrix -->
    <g style="fill: #cccccc" transform="translate(168.028019 305.097969)scale(0.1 -0.1)">
     <defs>
      <path id="DejaVuSans-78" d="M 3513 3500 
L 2247 1797 
L 3578 0 
L 2900 0 
L 1881 1375 
L 863 0 
L 184 0 
L 1544 1831 
L 300 3500 
L 978 3500 
L 1906 2253 
L 2834 3500 
L 3513 3500 
z
" transform="scale(0.015625)"/>
     </defs>
     <use xlink:href="#DejaVuSans-4d"/>
     <use xlink:href="#DejaVuSans-61" x="86.279297"/>
     <use xlink:href="#DejaVuSans-74" x="147.558594"/>
     <use xlink:href="#DejaVuSans-72" x="186.767578"/>
     <use xlink:href="#DejaVuSans-69" x="227.880859"/>
     <use xlink:href="#DejaVuSans-78" x="255.664062"/>
    </g>
   </g>
   <g id="text_18">
    <!-- 2.5% -->
    <g style="fill: #ffffff" transform="translate(203.469974 246.981525)scale(0.1 -0.1)">
     <use xlink:href="#DejaVuSans-32"/>
     <use xlink:href="#DejaVuSans-2e" x="63.623047"/>
     <use xlink:href="#DejaVuSans-35" x="95.410156"/>
     <use xlink:href="#DejaVuSans-25" x="159.033203"/>
    </g>
   </g>
   <g id="text_19">
    <!-- Dynamic Programming -->
    <g style="fill: #cccccc" transform="translate(112.55155 309.946806)scale(0.1 -0.1)">
     <defs>
      <path id="DejaVuSans-44" d="M 1259 4147 
L 1259 519 
L 2022 519 
Q 2988 519 3436 956 
Q 3884 1394 3884 2338 
Q 3884 3275 3436 3711 
Q 2988 4147 2022 4147 
L 1259 4147 
z
M 628 4666 
L 1925 4666 
Q 3281 4666 3915 4102 
Q 4550 3538 4550 2338 
Q 4550 1131 3912 565 
Q 3275 0 1925 0 
L 628 0 
L 628 4666 
z
" transform="scale(0.015625)"/>
      <path id="DejaVuSans-6d" d="M 3328 2828 
Q 3544 3216 3844 3400 
Q 4144 3584 4550 3584 
Q 5097 3584 5394 3201 
Q 5691 2819 5691 2113 
L 5691 0 
L 5113 0 
L 5113 2094 
Q 5113 2597 4934 2840 
Q 4756 3084 4391 3084 
Q 3944 3084 3684 2787 
Q 3425 2491 3425 1978 
L 3425 0 
L 2847 0 
L 2847 2094 
Q 2847 2600 2669 2842 
Q 2491 3084 2119 3084 
Q 1678 3084 1418 2786 
Q 1159 2488 1159 1978 
L 1159 0 
L 581 0 
L 581 3500 
L 1159 3500 
L 1159 2956 
Q 1356 3278 1631 3431 
Q 1906 3584 2284 3584 
Q 2666 3584 2933 3390 
Q 3200 3197 3328 2828 
z
" transform="scale(0.015625)"/>
     </defs>
     <use xlink:href="#DejaVuSans-44"/>
     <use xlink:href="#DejaVuSans-79" x="77.001953"/>
     <use xlink:href="#DejaVuSans-6e" x="136.181641"/>
     <use xlink:href="#DejaVuSans-61" x="199.560547"/>
     <use xlink:href="#DejaVuSans-6d" x="260.839844"/>
     <use xlink:href="#DejaVuSans-69" x="358.251953"/>
     <use xlink:href="#DejaVuSans-63" x="386.035156"/>
     <use xlink:href="#DejaVuSans-20" x="441.015625"/>
     <use xlink:href="#DejaVuSans-50" x="472.802734"/>
     <use xlink:href="#DejaVuSans-72" x="531.355469"/>
     <use xlink:href="#DejaVuSans-6f" x="570.21875"/>
     <use xlink:href="#DejaVuSans-67" x="631.400391"/>
     <use xlink:href="#DejaVuSans-72" x="694.876953"/>
     <use xlink:href="#DejaVuSans-61" x="735.990234"/>
     <use xlink:href="#DejaVuSans-6d" x="797.269531"/>
     <use xlink:href="#DejaVuSans-6d" x="894.681641"/>
     <use xlink:href="#DejaVuSans-69" x="992.09375"/>
     <use xlink:href="#DejaVuSans-6e" x="1019.876953"/>
     <use xlink:href="#DejaVuSans-67" x="1083.255859"/>
    </g>
   </g>
   <g id="text_20">
    <!-- 4.3% -->
    <g style="fill: #ffffff" transform="translate(218.585082 249.626345)scale(0.1 -0.1)">
     <use xlink:href="#DejaVuSans-34"/>
     <use xlink:href="#DejaVuSans-2e" x="63.623047"/>
     <use xlink:href="#DejaVuSans-33" x="95.410156"/>
     <use xlink:href="#DejaVuSans-25" x="159.033203"/>
    </g>
   </g>
   <g id="text_21">
    <!-- Sorting -->
    <g style="fill: #cccccc" transform="translate(258.868716 308.295464)scale(0.1 -0.1)">
     <use xlink:href="#DejaVuSans-53"/>
     <use xlink:href="#DejaVuSans-6f" x="63.476562"/>
     <use xlink:href="#DejaVuSans-72" x="124.658203"/>
     <use xlink:href="#DejaVuSans-74" x="165.771484"/>
     <use xlink:href="#DejaVuSans-69" x="204.980469"/>
     <use xlink:href="#DejaVuSans-6e" x="232.763672"/>
     <use xlink:href="#DejaVuSans-67" x="296.142578"/>
    </g>
   </g>
   <g id="text_22">
    <!-- 3.3% -->
    <g style="fill: #ffffff" transform="translate(235.846149 248.725613)scale(0.1 -0.1)">
     <use xlink:href="#DejaVuSans-33"/>
     <use xlink:href="#DejaVuSans-2e" x="63.623047"/>
     <use xlink:href="#DejaVuSans-33" x="95.410156"/>
     <use xlink:href="#DejaVuSans-25" x="159.033203"/>
    </g>
   </g>
   <g id="text_23">
    <!-- Stack -->
    <g style="fill: #cccccc" transform="translate(283.006818 301.726049)scale(0.1 -0.1)">
     <use xlink:href="#DejaVuSans-53"/>
     <use xlink:href="#DejaVuSans-74" x="63.476562"/>
     <use xlink:href="#DejaVuSans-61" x="102.685547"/>
     <use xlink:href="#DejaVuSans-63" x="163.964844"/>
     <use xlink:href="#DejaVuSans-6b" x="218.945312"/>
    </g>
   </g>
   <g id="text_24">
    <!-- 2.7% -->
    <g style="fill: #ffffff" transform="translate(249.012387 245.142296)scale(0.1 -0.1)">
     <use xlink:href="#DejaVuSans-32"/>
     <use xlink:href="#DejaVuSans-2e" x="63.623047"/>
     <use xlink:href="#DejaVuSans-37" x="95.410156"/>
     <use xlink:href="#DejaVuSans-25" x="159.033203"/>
    </g>
   </g>
   <g id="text_25">
    <!-- Greedy -->
    <g style="fill: #cccccc" transform="translate(302.796255 292.353613)scale(0.1 -0.1)">
     <defs>
      <path id="DejaVuSans-47" d="M 3809 666 
L 3809 1919 
L 2778 1919 
L 2778 2438 
L 4434 2438 
L 4434 434 
Q 4069 175 3628 42 
Q 3188 -91 2688 -91 
Q 1594 -91 976 548 
Q 359 1188 359 2328 
Q 359 3472 976 4111 
Q 1594 4750 2688 4750 
Q 3144 4750 3555 4637 
Q 3966 4525 4313 4306 
L 4313 3634 
Q 3963 3931 3569 4081 
Q 3175 4231 2741 4231 
Q 1884 4231 1454 3753 
Q 1025 3275 1025 2328 
Q 1025 1384 1454 906 
Q 1884 428 2741 428 
Q 3075 428 3337 486 
Q 3600 544 3809 666 
z
" transform="scale(0.015625)"/>
     </defs>
     <use xlink:href="#DejaVuSans-47"/>
     <use xlink:href="#DejaVuSans-72" x="77.490234"/>
     <use xlink:href="#DejaVuSans-65" x="116.353516"/>
     <use xlink:href="#DejaVuSans-65" x="177.876953"/>
     <use xlink:href="#DejaVuSans-64" x="239.400391"/>
     <use xlink:href="#DejaVuSans-79" x="302.876953"/>
    </g>
   </g>
   <g id="text_26">
    <!-- 2.6% -->
    <g style="fill: #ffffff" transform="translate(259.806625 240.030058)scale(0.1 -0.1)">
     <use xlink:href="#DejaVuSans-32"/>
     <use xlink:href="#DejaVuSans-2e" x="63.623047"/>
     <use xlink:href="#DejaVuSans-36" x="95.410156"/>
     <use xlink:href="#DejaVuSans-25" x="159.033203"/>
    </g>
   </g>
   <g id="text_27">
    <!-- Depth-First Search -->
    <g style="fill: #cccccc" transform="translate(328.779302 272.70386)scale(0.1 -0.1)">
     <defs>
      <path id="DejaVuSans-70" d="M 1159 525 
L 1159 -1331 
L 581 -1331 
L 581 3500 
L 1159 3500 
L 1159 2969 
Q 1341 3281 1617 3432 
Q 1894 3584 2278 3584 
Q 2916 3584 3314 3078 
Q 3713 2572 3713 1747 
Q 3713 922 3314 415 
Q 2916 -91 2278 -91 
Q 1894 -91 1617 61 
Q 1341 213 1159 525 
z
M 3116 1747 
Q 3116 2381 2855 2742 
Q 2594 3103 2138 3103 
Q 1681 3103 1420 2742 
Q 1159 2381 1159 1747 
Q 1159 1113 1420 752 
Q 1681 391 2138 391 
Q 2594 391 2855 752 
Q 3116 1113 3116 1747 
z
" transform="scale(0.015625)"/>
      <path id="DejaVuSans-2d" d="M 313 2009 
L 1997 2009 
L 1997 1497 
L 313 1497 
L 313 2009 
z
" transform="scale(0.015625)"/>
      <path id="DejaVuSans-46" d="M 628 4666 
L 3309 4666 
L 3309 4134 
L 1259 4134 
L 1259 2759 
L 3109 2759 
L 3109 2228 
L 1259 2228 
L 1259 0 
L 628 0 
L 628 4666 
z
" transform="scale(0.015625)"/>
     </defs>
     <use xlink:href="#DejaVuSans-44"/>
     <use xlink:href="#DejaVuSans-65" x="77.001953"/>
     <use xlink:href="#DejaVuSans-70" x="138.525391"/>
     <use xlink:href="#DejaVuSans-74" x="202.001953"/>
     <use xlink:href="#DejaVuSans-68" x="241.210938"/>
     <use xlink:href="#DejaVuSans-2d" x="304.589844"/>
     <use xlink:href="#DejaVuSans-46" x="340.673828"/>
     <use xlink:href="#DejaVuSans-69" x="390.943359"/>
     <use xlink:href="#DejaVuSans-72" x="418.726562"/>
     <use xlink:href="#DejaVuSans-73" x="459.839844"/>
     <use xlink:href="#DejaVuSans-74" x="511.939453"/>
     <use xlink:href="#DejaVuSans-20" x="551.148438"/>
     <use xlink:href="#DejaVuSans-53" x="582.935547"/>
     <use xlink:href="#DejaVuSans-65" x="646.412109"/>
     <use xlink:href="#DejaVuSans-61" x="707.935547"/>
     <use xlink:href="#DejaVuSans-72" x="769.214844"/>
     <use xlink:href="#DejaVuSans-63" x="808.078125"/>
     <use xlink:href="#DejaVuSans-68" x="863.058594"/>
    </g>
   </g>
   <g id="text_28">
    <!-- 5.2% -->
    <g style="fill: #ffffff" transform="translate(273.979196 229.312011)scale(0.1 -0.1)">
     <use xlink:href="#DejaVuSans-35"/>
     <use xlink:href="#DejaVuSans-2e" x="63.623047"/>
     <use xlink:href="#DejaVuSans-32" x="95.410156"/>
     <use xlink:href="#DejaVuSans-25" x="159.033203"/>
    </g>
   </g>
   <g id="text_29">
    <!-- Breadth-First Search -->
    <g style="fill: #cccccc" transform="translate(351.051266 244.260645)scale(0.1 -0.1)">
     <use xlink:href="#DejaVuSans-42"/>
     <use xlink:href="#DejaVuSans-72" x="68.603516"/>
     <use xlink:href="#DejaVuSans-65" x="107.466797"/>
     <use xlink:href="#DejaVuSans-61" x="168.990234"/>
     <use xlink:href="#DejaVuSans-64" x="230.269531"/>
     <use xlink:href="#DejaVuSans-74" x="293.746094"/>
     <use xlink:href="#DejaVuSans-68" x="332.955078"/>
     <use xlink:href="#DejaVuSans-2d" x="396.333984"/>
     <use xlink:href="#DejaVuSans-46" x="432.417969"/>
     <use xlink:href="#DejaVuSans-69" x="482.6875"/>
     <use xlink:href="#DejaVuSans-72" x="510.470703"/>
     <use xlink:href="#DejaVuSans-73" x="551.583984"/>
     <use xlink:href="#DejaVuSans-74" x="603.683594"/>
     <use xlink:href="#DejaVuSans-20" x="642.892578"/>
     <use xlink:href="#DejaVuSans-53" x="674.679688"/>
     <use xlink:href="#DejaVuSans-65" x="738.15625"/>
     <use xlink:href="#DejaVuSans-61" x="799.679688"/>
     <use xlink:href="#DejaVuSans-72" x="860.958984"/>
     <use xlink:href="#DejaVuSans-63" x="899.822266"/>
     <use xlink:href="#DejaVuSans-68" x="954.802734"/>
    </g>
   </g>
   <g id="text_30">
    <!-- 3.4% -->
    <g style="fill: #ffffff" transform="translate(286.127541 213.79753)scale(0.1 -0.1)">
     <use xlink:href="#DejaVuSans-33"/>
     <use xlink:href="#DejaVuSans-2e" x="63.623047"/>
     <use xlink:href="#DejaVuSans-34" x="95.410156"/>
     <use xlink:href="#DejaVuSans-25" x="159.033203"/>
    </g>
   </g>
   <g id="text_31">
    <!-- Counting -->
    <g style="fill: #cccccc" transform="translate(360.330545 224.920758)scale(0.1 -0.1)">
     <defs>
      <path id="DejaVuSans-43" d="M 4122 4306 
L 4122 3641 
Q 3803 3938 3442 4084 
Q 3081 4231 2675 4231 
Q 1875 4231 1450 3742 
Q 1025 3253 1025 2328 
Q 1025 1406 1450 917 
Q 1875 428 2675 428 
Q 3081 428 3442 575 
Q 3803 722 4122 1019 
L 4122 359 
Q 3791 134 3420 21 
Q 3050 -91 2638 -91 
Q 1578 -91 968 557 
Q 359 1206 359 2328 
Q 359 3453 968 4101 
Q 1578 4750 2638 4750 
Q 3056 4750 3426 4639 
Q 3797 4528 4122 4306 
z
" transform="scale(0.015625)"/>
      <path id="DejaVuSans-75" d="M 544 1381 
L 544 3500 
L 1119 3500 
L 1119 1403 
Q 1119 906 1312 657 
Q 1506 409 1894 409 
Q 2359 409 2629 706 
Q 2900 1003 2900 1516 
L 2900 3500 
L 3475 3500 
L 3475 0 
L 2900 0 
L 2900 538 
Q 2691 219 2414 64 
Q 2138 -91 1772 -91 
Q 1169 -91 856 284 
Q 544 659 544 1381 
z
M 1991 3584 
L 1991 3584 
z
" transform="scale(0.015625)"/>
     </defs>
     <use xlink:href="#DejaVuSans-43"/>
     <use xlink:href="#DejaVuSans-6f" x="69.824219"/>
     <use xlink:href="#DejaVuSans-75" x="131.005859"/>
     <use xlink:href="#DejaVuSans-6e" x="194.384766"/>
     <use xlink:href="#DejaVuSans-74" x="257.763672"/>
     <use xlink:href="#DejaVuSans-69" x="296.972656"/>
     <use xlink:href="#DejaVuSans-6e" x="324.755859"/>
     <use xlink:href="#DejaVuSans-67" x="388.134766"/>
    </g>
   </g>
   <g id="text_32">
    <!-- 1.7% -->
    <g style="fill: #ffffff" transform="translate(291.188965 203.248501)scale(0.1 -0.1)">
     <use xlink:href="#DejaVuSans-31"/>
     <use xlink:href="#DejaVuSans-2e" x="63.623047"/>
     <use xlink:href="#DejaVuSans-37" x="95.410156"/>
     <use xlink:href="#DejaVuSans-25" x="159.033203"/>
    </g>
   </g>
   <g id="text_33">
    <!-- Design -->
    <g style="fill: #cccccc" transform="translate(365.500341 208.26965)scale(0.1 -0.1)">
     <use xlink:href="#DejaVuSans-44"/>
     <use xlink:href="#DejaVuSans-65" x="77.001953"/>
     <use xlink:href="#DejaVuSans-73" x="138.525391"/>
     <use xlink:href="#DejaVuSans-69" x="190.625"/>
     <use xlink:href="#DejaVuSans-67" x="218.408203"/>
     <use xlink:href="#DejaVuSans-6e" x="281.884766"/>
    </g>
   </g>
   <g id="text_34">
    <!-- 2.5% -->
    <g style="fill: #ffffff" transform="translate(294.008854 194.166078)scale(0.1 -0.1)">
     <use xlink:href="#DejaVuSans-32"/>
     <use xlink:href="#DejaVuSans-2e" x="63.623047"/>
     <use xlink:href="#DejaVuSans-35" x="95.410156"/>
     <use xlink:href="#DejaVuSans-25" x="159.033203"/>
    </g>
   </g>
   <g id="text_35">
    <!-- Tree -->
    <g style="fill: #cccccc" transform="translate(369.121934 180.820385)scale(0.1 -0.1)">
     <use xlink:href="#DejaVuSans-54"/>
     <use xlink:href="#DejaVuSans-72" x="46.333984"/>
     <use xlink:href="#DejaVuSans-65" x="85.197266"/>
     <use xlink:href="#DejaVuSans-65" x="146.720703"/>
    </g>
   </g>
   <g id="text_36">
    <!-- 4.2% -->
    <g style="fill: #ffffff" transform="translate(295.984269 179.193752)scale(0.1 -0.1)">
     <use xlink:href="#DejaVuSans-34"/>
     <use xlink:href="#DejaVuSans-2e" x="63.623047"/>
     <use xlink:href="#DejaVuSans-32" x="95.410156"/>
     <use xlink:href="#DejaVuSans-25" x="159.033203"/>
    </g>
   </g>
   <g id="text_37">
    <!-- Binary Tree -->
    <g style="fill: #cccccc" transform="translate(365.706146 147.084712)scale(0.1 -0.1)">
     <use xlink:href="#DejaVuSans-42"/>
     <use xlink:href="#DejaVuSans-69" x="68.603516"/>
     <use xlink:href="#DejaVuSans-6e" x="96.386719"/>
     <use xlink:href="#DejaVuSans-61" x="159.765625"/>
     <use xlink:href="#DejaVuSans-72" x="221.044922"/>
     <use xlink:href="#DejaVuSans-79" x="262.158203"/>
     <use xlink:href="#DejaVuSans-20" x="321.337891"/>
     <use xlink:href="#DejaVuSans-54" x="353.125"/>
     <use xlink:href="#DejaVuSans-72" x="399.458984"/>
     <use xlink:href="#DejaVuSans-65" x="438.322266"/>
     <use xlink:href="#DejaVuSans-65" x="499.845703"/>
    </g>
   </g>
   <g id="text_38">
    <!-- 4.0% -->
    <g style="fill: #ffffff" transform="translate(294.121111 160.792476)scale(0.1 -0.1)">
     <defs>
      <path id="DejaVuSans-30" d="M 2034 4250 
Q 1547 4250 1301 3770 
Q 1056 3291 1056 2328 
Q 1056 1369 1301 889 
Q 1547 409 2034 409 
Q 2525 409 2770 889 
Q 3016 1369 3016 2328 
Q 3016 3291 2770 3770 
Q 2525 4250 2034 4250 
z
M 2034 4750 
Q 2819 4750 3233 4129 
Q 3647 3509 3647 2328 
Q 3647 1150 3233 529 
Q 2819 -91 2034 -91 
Q 1250 -91 836 529 
Q 422 1150 422 2328 
Q 422 3509 836 4129 
Q 1250 4750 2034 4750 
z
" transform="scale(0.015625)"/>
     </defs>
     <use xlink:href="#DejaVuSans-34"/>
     <use xlink:href="#DejaVuSans-2e" x="63.623047"/>
     <use xlink:href="#DejaVuSans-30" x="95.410156"/>
     <use xlink:href="#DejaVuSans-25" x="159.033203"/>
    </g>
   </g>
   <g id="text_39">
    <!-- other -->
    <g style="fill: #cccccc" transform="translate(312.229143 68.13319)scale(0.1 -0.1)">
     <use xlink:href="#DejaVuSans-6f"/>
     <use xlink:href="#DejaVuSans-74" x="61.181641"/>
     <use xlink:href="#DejaVuSans-68" x="100.390625"/>
     <use xlink:href="#DejaVuSans-65" x="163.769531"/>
     <use xlink:href="#DejaVuSans-72" x="225.292969"/>
    </g>
   </g>
   <g id="text_40">
    <!-- 19.4% -->
    <g style="fill: #ffffff" transform="translate(261.770587 117.72801)scale(0.1 -0.1)">
     <defs>
      <path id="DejaVuSans-39" d="M 703 97 
L 703 672 
Q 941 559 1184 500 
Q 1428 441 1663 441 
Q 2288 441 2617 861 
Q 2947 1281 2994 2138 
Q 2813 1869 2534 1725 
Q 2256 1581 1919 1581 
Q 1219 1581 811 2004 
Q 403 2428 403 3163 
Q 403 3881 828 4315 
Q 1253 4750 1959 4750 
Q 2769 4750 3195 4129 
Q 3622 3509 3622 2328 
Q 3622 1225 3098 567 
Q 2575 -91 1691 -91 
Q 1453 -91 1209 -44 
Q 966 3 703 97 
z
M 1959 2075 
Q 2384 2075 2632 2365 
Q 2881 2656 2881 3163 
Q 2881 3666 2632 3958 
Q 2384 4250 1959 4250 
Q 1534 4250 1286 3958 
Q 1038 3666 1038 3163 
Q 1038 2656 1286 2365 
Q 1534 2075 1959 2075 
z
" transform="scale(0.015625)"/>
     </defs>
     <use xlink:href="#DejaVuSans-31"/>
     <use xlink:href="#DejaVuSans-39" x="63.623047"/>
     <use xlink:href="#DejaVuSans-2e" x="127.246094"/>
     <use xlink:href="#DejaVuSans-34" x="159.033203"/>
     <use xlink:href="#DejaVuSans-25" x="222.65625"/>
    </g>
   </g>
  </g>
 </g>
 <defs>
  <clipPath id="p50f2c4c97a">
   <rect x="57.6" y="41.472" width="357.12" height="266.112"/>
  </clipPath>
 </defs>
</svg>
